<svg width="79" height="78" viewBox="0 0 79 78" fill="none" xmlns="http://www.w3.org/2000/svg">
<path d="M20.5569 43.4365V35.5378H21.5789L26.4124 41.9009V35.5378H27.3783V43.4365H26.3564L21.524 37.0179V43.4365H20.5569ZM35.2209 43.1269C34.5842 43.3701 33.8974 43.4919 33.1607 43.4919C30.3002 43.4919 28.8694 42.1202 28.8694 39.3768C28.8694 36.7809 30.2503 35.4823 33.0114 35.4823C33.8042 35.4823 34.5403 35.5932 35.2209 35.8144V36.698C34.5508 36.4421 33.8396 36.311 33.1223 36.3111C30.9687 36.3111 29.892 37.3336 29.892 39.3762C29.892 41.5669 30.9511 42.6632 33.0729 42.6632C33.4117 42.6632 33.7871 42.6187 34.2002 42.5297V39.846H35.2216V43.1269H35.2209V43.1269ZM36.851 40.3878V35.5384H37.8723V40.3878C37.8723 41.9045 38.6274 42.6638 40.1374 42.6638C41.6468 42.6638 42.4018 41.9045 42.4018 40.3878V35.5384H43.4237V40.3878C43.4237 42.4572 42.3281 43.4925 40.1374 43.4925C37.9467 43.4925 36.851 42.4578 36.851 40.3878ZM46.2677 35.5378V42.6083H50.3999V43.4365H45.2464V35.5378H46.2677ZM51.8739 43.4365H50.8136L54.7404 34.4963L58.6679 43.4365H57.5357L56.5137 40.9508H53.9013L54.1829 40.1233H56.1719L54.6966 36.5438L51.8739 43.4365ZM59.7446 43.4365V35.5378H63.1139C64.6166 35.5378 65.3673 36.1697 65.3673 37.4323C65.3673 38.4603 64.633 39.2208 63.1638 39.7132L65.8756 43.4359H64.5276L62.0152 39.8844V39.2166C63.5246 38.9765 64.279 38.3963 64.279 37.4768C64.279 36.748 63.8597 36.383 63.0206 36.383H60.7666V43.4365H59.7446V43.4365ZM69.7036 35.5378V41.1611C69.7036 42.6778 68.8109 43.4365 67.0248 43.4365V42.6083C68.1296 42.6083 68.6823 42.1251 68.6823 41.1611V35.5378H69.7036V35.5378ZM71.5263 43.1604V42.2214C72.355 42.5157 73.2496 42.6638 74.2106 42.6638C75.5695 42.6638 76.2496 42.1672 76.2496 41.1714C76.2496 40.3262 75.748 39.9015 74.7462 39.9015H73.7298C72.0766 39.9015 71.2496 39.1843 71.2496 37.748C71.2496 36.2379 72.3087 35.4829 74.4269 35.4829C75.3471 35.4829 76.2032 35.5944 76.9948 35.815V36.7541C76.2026 36.4591 75.3471 36.3111 74.4269 36.3111C72.9906 36.3111 72.2728 36.79 72.2728 37.7474C72.2728 38.5944 72.7584 39.0173 73.7304 39.0173H74.7468C76.4293 39.0173 77.2715 39.7364 77.2715 41.1708C77.2715 42.718 76.2514 43.4919 74.2118 43.4919C73.2496 43.4919 72.3556 43.381 71.5263 43.1604V43.1604Z" fill="#CCCCCC"/>
<path d="M20.8161 43.1776V35.2801H21.8374L26.6704 41.6425V35.2801H27.6374V43.1776H26.6155L21.7826 36.759V43.1776H20.8161ZM35.4801 42.8686C34.8433 43.1118 34.1565 43.2336 33.4198 43.2336C30.5594 43.2336 29.128 41.8625 29.128 39.1191C29.128 36.5226 30.5094 35.224 33.2711 35.224C34.0627 35.224 34.7994 35.3355 35.4801 35.5561V36.4397C34.81 36.1838 34.0987 36.0527 33.3814 36.0528C31.2279 36.0528 30.1505 37.0753 30.1505 39.1179C30.1505 41.3092 31.2108 42.4049 33.3321 42.4049C33.6709 42.4049 34.0469 42.361 34.4594 42.272V39.5877H35.4807V42.8686H35.4801V42.8686ZM37.1096 40.1295V35.2795H38.1309V40.1289C38.1309 41.6456 38.8859 42.4049 40.3959 42.4049C41.906 42.4049 42.661 41.6456 42.661 40.1289V35.2795H43.6823V40.1289C43.6823 42.1989 42.5872 43.2336 40.3959 43.2336C38.2046 43.2336 37.1096 42.1989 37.1096 40.1295V40.1295ZM46.5262 35.2795V42.3494H50.6578V43.1776H45.5049V35.2795H46.5262ZM52.1331 43.1776H51.0722L54.9996 34.2374L58.927 43.1776H57.7936L56.7717 40.6919H54.1599L54.442 39.8638H56.4298L54.9551 36.2843L52.1331 43.1776ZM60.0032 43.1776V35.2801H63.3724C64.8751 35.2801 65.6253 35.9114 65.6253 37.174C65.6253 38.2014 64.8916 38.9625 63.4224 39.4549L66.1341 43.1776H64.7862L62.2737 39.6267V38.9576C63.7831 38.7176 64.5381 38.138 64.5381 37.2179C64.5381 36.4891 64.1183 36.1247 63.2786 36.1247H61.0251V43.1776H60.0032Z" fill="black"/>
<path d="M69.9621 35.2796V40.9029C69.9621 42.4202 69.0694 43.1783 67.2833 43.1783V42.3502C68.3881 42.3502 68.9408 41.8669 68.9408 40.9029V35.2796H69.9621ZM71.7848 42.9016V41.9626C72.6135 42.2563 73.5075 42.405 74.4691 42.405C75.8274 42.405 76.5074 41.9077 76.5074 40.9132C76.5074 40.0668 76.0065 39.6433 75.0047 39.6433H73.9883C72.335 39.6433 71.5081 38.9249 71.5081 37.4892C71.5081 35.9791 72.5666 35.2241 74.6848 35.2241C75.6056 35.2241 76.4611 35.3356 77.2533 35.5556V36.4953C76.4611 36.2003 75.6056 36.0523 74.6848 36.0523C73.2491 36.0523 72.5307 36.5312 72.5307 37.4886C72.5307 38.335 73.0163 38.7585 73.9889 38.7585H75.0053C76.6878 38.7585 77.53 39.4769 77.53 40.9126C77.53 42.4592 76.5099 43.2331 74.4697 43.2331C73.5081 43.2331 72.6135 43.1222 71.7848 42.9016V42.9016Z" fill="#A6120D"/>
<path d="M10.0704 29.197L0.845642 32.4432L2.30327 44.5289L10.0801 48.8031L17.8972 44.4716L19.3542 32.3859L10.0704 29.197Z" fill="#B3B3B3"/>
<path d="M18.4335 33.0839L10.0491 30.2247V47.7814L17.0758 43.8924L18.4335 33.0839Z" fill="#A6120D"/>
<path d="M1.88025 33.1357L3.13008 43.9442L10.0489 47.7814V30.2247L1.88025 33.1357Z" fill="#DD1B16"/>
<path d="M12.3575 39.5719L10.0491 40.6511H7.61591L6.47212 43.5115L4.3454 43.5505L10.0485 30.8627L12.3575 39.5719ZM12.1338 39.0283L10.0644 34.9309L8.36666 38.9576H10.0491L12.1338 39.0283Z" fill="#F2F2F2"/>
<path d="M10.0491 30.8627L10.0637 34.9309L11.9905 38.9613H10.0527L10.0491 40.6486L12.7273 40.6511L13.9795 43.5511L16.0149 43.5889L10.0491 30.8627Z" fill="#B3B3B3"/>
</svg>
