<svg width="75" height="74" viewBox="0 0 75 74" fill="none" xmlns="http://www.w3.org/2000/svg">
<path d="M26.7416 33.1618C25.239 33.1618 23.5625 33.7405 23.211 35.6454C23.174 35.8483 23.3075 35.9443 23.437 35.9732L24.9766 36.1582C25.1188 36.1501 25.2159 35.9963 25.2431 35.8501C25.3749 35.1945 25.9137 34.8852 26.5155 34.8852C26.841 34.8852 27.2052 34.9967 27.3983 35.2956C27.6186 35.6286 27.603 36.0813 27.603 36.4658V36.6918C26.6884 36.797 25.4836 36.8606 24.6274 37.2457C23.6394 37.685 22.9439 38.5794 22.9439 39.8935C22.9439 41.5775 23.9758 42.4176 25.3044 42.4176C26.4259 42.4176 27.0463 42.1539 27.9111 41.2486C28.1985 41.6752 28.2904 41.8689 28.8142 42.3158C28.8723 42.3487 28.9394 42.3625 29.0058 42.3551C29.0722 42.3477 29.1346 42.3196 29.1842 42.2748V42.295C29.4992 42.0077 30.0716 41.485 30.3948 41.2075C30.5231 41.0994 30.4954 40.9225 30.3948 40.7763C30.1057 40.3675 29.7999 40.0386 29.7999 39.2778V36.7537C29.7999 35.6841 29.8901 34.6979 29.1223 33.9625C28.5176 33.3664 27.5088 33.1618 26.7416 33.1618V33.1618ZM47.4304 33.1618C45.9272 33.1618 44.2518 33.7405 43.9003 35.6454C43.8633 35.8483 43.9963 35.9443 44.1258 35.9732L45.6659 36.1582C45.8082 36.1501 45.9059 35.9963 45.9325 35.8501C46.0648 35.1945 46.6037 34.8852 47.2049 34.8852C47.531 34.8852 47.8946 34.9967 48.0871 35.2956C48.3074 35.6286 48.2715 36.0813 48.2715 36.4658V36.6918C47.357 36.797 46.173 36.8606 45.3162 37.2457C44.327 37.685 43.6338 38.5794 43.6338 39.8935C43.6338 41.5775 44.6658 42.4176 45.9937 42.4176C47.1141 42.4176 47.7345 42.1539 48.6005 41.2486C48.8867 41.6752 48.9798 41.8689 49.5041 42.3158C49.5622 42.3488 49.6291 42.3625 49.6955 42.3552C49.7618 42.3478 49.8241 42.3196 49.8735 42.2748V42.295C50.1892 42.0077 50.7621 41.485 51.0847 41.2075C51.213 41.0994 51.1836 40.9225 51.0847 40.7763C50.7956 40.3675 50.4892 40.0386 50.4892 39.2778V36.7537C50.4892 35.6841 50.5586 34.6979 49.792 33.9625C49.185 33.3664 48.197 33.1618 47.4304 33.1618ZM35.7927 33.2439C34.8215 33.2439 34.1023 33.7341 33.7201 34.7834H33.6993V33.6954C33.6943 33.6209 33.6625 33.5508 33.6098 33.498C33.5571 33.4451 33.487 33.4132 33.4126 33.4081H31.9343C31.8529 33.4091 31.7751 33.4419 31.7176 33.4995C31.66 33.557 31.6272 33.6348 31.6262 33.7162V42.0285C31.6335 42.1023 31.6661 42.1713 31.7187 42.2237C31.7712 42.2761 31.8402 42.3087 31.9141 42.3158H33.4941C33.5755 42.3151 33.6534 42.2823 33.7109 42.2247C33.7685 42.167 33.8011 42.0891 33.8017 42.0077V37.5948C33.8017 36.6328 33.7554 35.317 34.8897 35.317C36.0095 35.317 35.854 36.6693 35.854 37.5948V42.0077C35.854 42.1643 35.9823 42.3054 36.1419 42.3158H37.7219C37.8896 42.3158 38.0295 42.1753 38.0295 42.0077V37.5948C38.0295 37.1231 38.0104 36.4351 38.1729 36.0148C38.3353 35.5945 38.7342 35.317 39.1175 35.317C39.5737 35.317 39.9234 35.476 40.0414 36.0351C40.1142 36.3675 40.0824 37.2457 40.0824 37.5948V42.0077C40.0824 42.1643 40.2107 42.3054 40.3692 42.3158H41.9498C42.1174 42.3158 42.2573 42.1753 42.2573 42.0077V36.7537C42.2573 35.8605 42.3463 34.847 41.8468 34.1469C41.4046 33.5179 40.6819 33.2433 40.02 33.2433C39.0921 33.2433 38.2272 33.7335 37.8445 34.7828C37.4028 33.7341 36.7796 33.2439 35.7927 33.2439V33.2439ZM62.6593 33.2439C60.3763 33.2439 59.1085 35.2517 59.1085 37.8417C59.1085 40.4132 60.3613 42.4794 62.6593 42.4794C64.8695 42.4794 66.272 40.4606 66.272 37.9232C66.272 35.3003 65.0013 33.2439 62.6593 33.2439V33.2439ZM71.6694 33.2439C70.5785 33.2439 69.9547 33.789 69.5142 34.9268H69.4939V33.6543C69.4656 33.526 69.3448 33.4364 69.2066 33.4289H67.7492C67.6739 33.4272 67.6007 33.4535 67.5437 33.5027C67.4868 33.552 67.4502 33.6207 67.441 33.6954V42.0077C67.441 42.1643 67.5711 42.3054 67.7283 42.3158H69.2887C69.3699 42.3145 69.4474 42.2815 69.5047 42.224C69.562 42.1665 69.5946 42.0889 69.5957 42.0077V37.5336C69.5957 36.9728 69.6437 36.4611 69.8634 35.9535C70.0403 35.5506 70.3831 35.2962 70.7664 35.2962C71.855 35.2962 71.7509 36.623 71.7509 37.5336V42.0493C71.7616 42.1198 71.7959 42.1847 71.8482 42.2332C71.9005 42.2817 71.9677 42.311 72.0388 42.3164H73.6189C73.6937 42.3164 73.7661 42.2894 73.8226 42.2403C73.8791 42.1913 73.916 42.1234 73.9264 42.0493V36.8155C73.9264 36.0108 73.9282 34.8938 73.516 34.229C73.0743 33.5115 72.3742 33.2439 71.6694 33.2439V33.2439ZM52.7052 33.3878C52.5445 33.3878 52.4179 33.515 52.4173 33.6954V34.8857C52.4179 35.065 52.5404 35.1927 52.7052 35.1939H55.4143L52.315 39.7703C52.1265 40.0657 52.1103 40.3999 52.1103 40.5918V41.803C52.1103 41.9776 52.2999 42.1672 52.4797 42.0695C54.2465 41.1052 56.363 41.1908 57.9598 42.0493C58.154 42.1551 58.35 41.9568 58.35 41.7822V40.5092C58.3455 40.4154 58.3166 40.3245 58.2662 40.2453C58.2158 40.1661 58.1457 40.1015 58.0627 40.0577C57.1562 39.5368 56.104 39.3766 55.1079 39.4009L57.7962 35.461C58.0447 35.1066 58.1835 34.8938 58.1858 34.7216V33.696C58.1858 33.5191 58.065 33.3884 57.8991 33.3884H52.7052V33.3878ZM62.6593 34.9476C63.1594 34.9476 63.5288 35.1708 63.7063 35.7477C63.911 36.4137 63.9324 37.2439 63.9324 37.944C63.9324 39.0112 63.8827 40.7763 62.6599 40.7763C61.4233 40.7763 61.4285 38.591 61.4285 37.5746C61.4279 36.5612 61.4962 34.9476 62.6593 34.9476V34.9476ZM27.5828 37.9851V38.3343C27.5828 38.9656 27.6059 39.4963 27.2954 40.0577C27.0445 40.5144 26.6502 40.7971 26.208 40.7971C25.6038 40.7971 25.2437 40.3062 25.2437 39.6061C25.2431 38.2262 26.4427 37.9851 27.5828 37.9851V37.9851ZM48.2715 37.9851V38.3343C48.2715 38.9656 48.2947 39.4963 47.9848 40.0577C47.7333 40.5144 47.3419 40.7971 46.8968 40.7971C46.2915 40.7971 45.9319 40.3062 45.9319 39.6061C45.9319 38.2262 47.1303 37.9851 48.2715 37.9851V37.9851ZM58.513 42.5823V43.7733H59.3143V42.5823H58.513V42.5823ZM35.3002 42.7881V51.2646H36.039V50.5049C36.1962 50.8062 36.3755 51.031 36.5928 51.1819C36.8102 51.3334 37.0588 51.408 37.3311 51.408C37.874 51.408 38.3428 51.1311 38.7475 50.5668C39.1528 50.002 39.3632 49.1839 39.3632 48.145C39.3632 47.464 39.2759 46.8998 39.0961 46.4216C38.9163 45.9441 38.677 45.5886 38.3781 45.3539C38.078 45.1191 37.7381 44.9844 37.3727 44.9844C37.1114 44.9844 36.8675 45.0527 36.6535 45.1891C36.4408 45.3255 36.2685 45.5487 36.0997 45.8256V42.7881H35.3002V42.7881ZM42.8938 44.7786C42.3377 44.7786 41.8948 44.9434 41.5809 45.2712C41.267 45.599 41.1097 46.0204 41.1097 46.5442C41.1097 46.8477 41.1762 47.1061 41.2936 47.3443C41.4104 47.5831 41.5769 47.7768 41.7861 47.919C41.9966 48.0612 42.4163 48.2485 43.0384 48.4526C43.4691 48.5914 43.7263 48.7093 43.8391 48.8018C44.0015 48.9365 44.0859 49.1128 44.0859 49.3562C44.0859 49.6372 43.9876 49.8719 43.798 50.054C43.6084 50.2373 43.3436 50.3205 42.9973 50.3205C42.6504 50.3205 42.3648 50.2234 42.1561 50.013C41.9469 49.8025 41.8341 49.4822 41.7861 49.0487L40.986 49.2123C41.167 50.5292 41.8237 51.1837 42.9563 51.1825C43.5604 51.1825 44.0223 51.012 44.3721 50.6489C44.7213 50.2858 44.9063 49.7985 44.9063 49.2123C44.9063 48.8954 44.8496 48.6214 44.7421 48.3919C44.643 48.1759 44.4866 47.9912 44.29 47.8577C44.0957 47.7253 43.6604 47.5478 42.9973 47.3241C42.5152 47.1553 42.2336 47.0316 42.1359 46.9541C41.9717 46.8246 41.889 46.6477 41.889 46.4211C41.889 46.1898 41.9659 45.9938 42.1359 45.8458C42.3059 45.6984 42.5678 45.6204 42.9158 45.6204C43.5275 45.6204 43.8697 45.9563 43.9414 46.6257L44.7219 46.5026C44.6675 46.0794 44.5756 45.7441 44.4351 45.5169C44.2843 45.2795 44.0713 45.088 43.8194 44.963C43.5506 44.8289 43.2459 44.7786 42.8938 44.7786V44.7786ZM47.7998 44.7786C47.1587 44.7786 46.617 45.0428 46.1984 45.5996C45.7804 46.1563 45.5838 46.9628 45.5838 48.0213C45.5838 49.0411 45.785 49.8401 46.1984 50.3818C46.6135 50.9218 47.15 51.1819 47.8206 51.1819C48.3531 51.1819 48.7947 51.0224 49.1543 50.6894C49.5151 50.3569 49.777 49.8667 49.9134 49.2111L49.0925 49.0677C48.8572 49.9066 48.4219 50.3182 47.8206 50.3194C47.4367 50.3194 47.1234 50.1569 46.8557 49.8066C46.5875 49.4557 46.436 48.9353 46.4048 48.2468H49.9342V47.9595C49.9342 46.9235 49.7278 46.1459 49.3185 45.599C48.9086 45.0527 48.4115 44.7786 47.7998 44.7786V44.7786ZM52.6641 44.7786C52.4728 44.7786 52.3051 44.8434 52.1508 44.9839C51.9964 45.1238 51.823 45.414 51.6374 45.8453V44.9012H50.9188V51.038H51.7195V47.8363C51.7195 47.39 51.7623 46.9599 51.8634 46.5639C51.9212 46.3361 52.0305 46.1574 52.171 46.0303C52.3121 45.9025 52.4734 45.8453 52.6427 45.8453C52.8312 45.8453 53.0185 45.921 53.2174 46.0713L53.4845 45.107C53.2058 44.8838 52.9324 44.7786 52.6641 44.7786V44.7786ZM62.4743 44.7786C61.8407 44.7786 61.3187 45.0457 60.914 45.5793C60.5116 46.1129 60.2994 46.9142 60.2994 47.9803C60.2994 49.0388 60.5145 49.8407 60.914 50.3818C61.3146 50.9218 61.8153 51.1819 62.4333 51.1819C62.9444 51.1819 63.3826 50.9923 63.7468 50.6073C64.111 50.2228 64.333 49.6557 64.4244 48.9244L63.6439 48.8012C63.5855 49.3244 63.4496 49.7014 63.2334 49.9505C63.0178 50.1991 62.7576 50.3199 62.4535 50.3199C62.0662 50.3199 61.7361 50.139 61.4881 49.7661C61.2412 49.3926 61.1192 48.7949 61.1192 47.96C61.1192 47.1507 61.2505 46.5668 61.5089 46.195C61.7679 45.8227 62.0991 45.6204 62.494 45.6204C62.7582 45.6204 62.9837 45.7227 63.1716 45.9274C63.3606 46.1332 63.4855 46.4581 63.5612 46.872L64.3423 46.7084C64.2486 46.0615 64.0411 45.5741 63.7052 45.251C63.3699 44.9272 62.9629 44.7786 62.4743 44.7786V44.7786ZM67.0514 44.7786C66.4096 44.7786 65.8685 45.0428 65.45 45.5996C65.032 46.1563 64.8343 46.9628 64.8343 48.0213C64.8343 49.0411 65.036 49.8401 65.45 50.3818C65.8656 50.9218 66.4015 51.1819 67.0716 51.1819C67.6023 51.1819 68.0457 51.0224 68.4059 50.6894C68.7655 50.3569 69.0274 49.8667 69.1656 49.2111L68.3446 49.0677C68.1076 49.9066 67.6925 50.3182 67.0924 50.3194C66.7085 50.3194 66.375 50.1569 66.1073 49.8066C65.8396 49.4557 65.6881 48.9353 65.6558 48.2468H69.1858V47.9595C69.1858 46.9235 68.9794 46.1459 68.5701 45.599C68.1619 45.0527 67.6636 44.7786 67.0514 44.7786V44.7786ZM71.7931 44.7786C71.2347 44.7786 70.7936 44.9434 70.4796 45.2712C70.1646 45.5984 70.0073 46.0204 70.0073 46.5442C70.0073 46.8477 70.0547 47.1061 70.1715 47.3443C70.2871 47.5831 70.4542 47.7768 70.6646 47.919C70.8733 48.0612 71.2948 48.2485 71.9169 48.4526C72.3464 48.5914 72.6256 48.7093 72.7378 48.8018C72.9003 48.9365 72.9841 49.1128 72.9841 49.3562C72.9841 49.6372 72.887 49.8719 72.6968 50.054C72.5083 50.2373 72.2429 50.3205 71.8966 50.3205C71.5486 50.3205 71.2642 50.2234 71.0549 50.013C70.8462 49.8025 70.7109 49.4822 70.6646 49.0487L69.8645 49.2123C70.0455 50.5292 70.7005 51.1837 71.8342 51.1825C72.4395 51.1825 72.9216 51.012 73.2708 50.6489C73.62 50.2858 73.8039 49.7985 73.8039 49.2123C73.8039 48.8954 73.7484 48.6214 73.6408 48.3919C73.5344 48.1745 73.3712 47.9899 73.1685 47.8577C72.9743 47.7253 72.5592 47.5478 71.8966 47.3241C71.4139 47.1553 71.1121 47.0316 71.0138 46.9541C70.8502 46.8246 70.7675 46.6477 70.7675 46.4211C70.7675 46.1898 70.8641 45.9938 71.0346 45.8458C71.2046 45.6984 71.4682 45.6204 71.8151 45.6204C72.4268 45.6204 72.7684 45.9563 72.8407 46.6257L73.6206 46.5026C73.5663 46.0794 73.4749 45.7441 73.3333 45.5169C73.1827 45.2796 72.9699 45.088 72.7181 44.963C72.4505 44.8289 72.1435 44.7786 71.7931 44.7786ZM53.4851 44.9018L55.2715 51.0386H56.0306L57.8164 44.9018H56.9955L55.9485 48.6578C55.8219 49.1117 55.7097 49.5042 55.6403 49.8274C55.5536 49.4198 55.4692 48.9914 55.3536 48.5752L54.3274 44.9018H53.4851ZM58.513 44.9018V51.0386H59.3143V44.9018H58.513V44.9018ZM32.2008 44.9844C31.566 44.9844 31.0556 45.2689 30.6416 45.8256C30.2271 46.3823 30.0045 47.1888 30.0045 48.2474C30.0045 49.2678 30.2098 50.0471 30.6202 50.587C31.0301 51.1276 31.5782 51.408 32.2424 51.408C32.7691 51.408 33.1992 51.2276 33.5554 50.8946C33.9115 50.5622 34.1578 50.0719 34.2948 49.4169L33.4941 49.2938C33.2605 50.1326 32.8373 50.5443 32.2424 50.5454C31.8615 50.5454 31.5429 50.383 31.2776 50.032C31.0116 49.6817 30.8573 49.1614 30.826 48.4728H34.315L34.3358 48.1855C34.3358 47.1495 34.1254 46.3517 33.7201 45.8042C33.3149 45.2579 32.8061 44.9844 32.2008 44.9844V44.9844ZM23.1913 45.1278L24.628 51.2646H25.4691L26.4138 46.5442L26.578 47.5906L27.3371 51.2646H28.158L29.6155 45.1278H28.8564L28.0551 48.6781L27.788 49.869L27.5417 48.6781L26.8439 45.1272H26.023L25.2841 48.7191L25.0379 49.9916L24.7511 48.6781L24.0117 45.1272H23.1913V45.1278ZM47.779 45.6204C48.1779 45.6204 48.5063 45.8129 48.7641 46.195C48.941 46.4563 49.0566 46.8541 49.0919 47.3854H46.4441C46.4695 46.8466 46.6216 46.4315 46.876 46.1129C47.1303 45.795 47.4211 45.6204 47.779 45.6204V45.6204ZM67.0305 45.6204C67.4283 45.6204 67.7578 45.8129 68.0157 46.195C68.1937 46.4563 68.3082 46.8541 68.3446 47.3854H65.6962C65.7217 46.8466 65.8743 46.4315 66.1275 46.1129C66.3802 45.795 66.6727 45.6204 67.0305 45.6204V45.6204ZM32.2008 45.8458C32.5951 45.8458 32.9119 46.0389 33.1663 46.4211C33.342 46.6824 33.4582 47.0801 33.4941 47.6114H30.8867C30.9116 47.0726 31.0457 46.6361 31.2978 46.3187C31.5487 45.9996 31.8459 45.8458 32.2008 45.8458ZM37.2912 45.8458C37.6468 45.8458 37.9503 46.0436 38.1948 46.4211C38.4394 46.798 38.544 47.3802 38.544 48.1861C38.544 48.9706 38.4284 49.5562 38.174 49.9511C37.9202 50.3465 37.619 50.546 37.2918 50.546C37.0513 50.546 36.8328 50.4651 36.635 50.2997C36.4362 50.1344 36.2911 49.8973 36.183 49.5817C36.0754 49.266 36.0193 48.7798 36.0193 48.145C36.0193 47.3969 36.1529 46.8367 36.409 46.4413C36.6651 46.0459 36.964 45.8458 37.2912 45.8458V45.8458ZM11.6872 39.3402L8.62893 40.6531L11.4612 41.8643L14.7455 40.6531L11.6872 39.3402V39.3402ZM7.08996 40.9815L6.98706 46.8934L11.4617 48.8637V42.7263L7.08996 40.9815V40.9815ZM16.2845 40.9815L12.2411 42.521V48.3092L16.2845 46.6674V40.9815ZM21.1078 22.5919L18.0287 23.9048L20.8817 25.116L24.166 23.9048L21.1078 22.5919ZM16.8383 24.3367V30.2474L20.6562 31.3557L20.7794 25.978L16.8383 24.3367ZM25.3766 24.6645L21.7639 26.204V32.0125L25.3766 30.3706V24.6645ZM6.6477 30.9111L3.58942 32.2246L6.42165 33.4358L9.7054 32.2246L6.6477 30.9111ZM2.05103 32.5536L1.94812 38.4643L6.42223 40.4346V34.2978L2.05103 32.5536V32.5536ZM11.2455 32.5536L7.20212 34.0926V39.8807L11.2455 38.2389V32.5536V32.5536ZM16.4995 30.6932L13.4412 32.0061L16.2735 33.2167L19.5572 32.0061L16.4995 30.6932ZM11.9023 32.3345L11.7999 38.2458L16.2741 40.2161V34.0793L11.9023 32.3345V32.3345ZM21.0974 32.3345L17.054 33.874V39.6622L21.0974 38.0198V32.3345V32.3345ZM30.7301 22.5919L27.6724 23.9048L30.5046 25.116L33.7889 23.9048L30.7301 22.5919ZM26.1328 24.2338L26.0299 30.1451L30.5046 32.1148V25.9786L26.1328 24.2338V24.2338ZM35.3273 24.2338L31.2839 25.7733V31.5609L35.3273 29.9191V24.2338V24.2338Z" fill="#F7A80D"/>
</svg>
