<svg width="69" height="68" viewBox="0 0 69 68" fill="none" xmlns="http://www.w3.org/2000/svg">
<path d="M11.005 58.4791H9.71247C9.66788 58.4779 9.62358 58.4866 9.58272 58.5045C9.54186 58.5224 9.50545 58.5491 9.47606 58.5827C8.727 59.7036 7.43606 60.4176 6.00594 60.4176C3.69447 60.4176 1.79153 58.5476 1.79153 56.2027C1.78836 55.6482 1.89519 55.0986 2.10583 54.5857C2.31647 54.0728 2.62673 53.6068 3.01868 53.2146C3.41062 52.8224 3.87645 52.5119 4.38921 52.3009C4.90197 52.0899 5.45148 51.9828 6.00594 51.9856C7.469 51.9856 8.72647 52.7347 9.47606 53.8221C9.5055 53.8555 9.54197 53.882 9.58284 53.8996C9.62371 53.9172 9.66798 53.9256 9.71247 53.9241H11.005C11.175 53.9241 11.277 53.7871 11.277 53.6521C11.277 53.6192 11.277 53.5507 11.2441 53.5151C10.2915 51.6121 8.285 50.2861 6.00594 50.2861C2.74406 50.2861 0.125 52.9052 0.125 56.1671C0.125 59.4316 2.74406 62.0507 6.00594 62.0507C8.32006 62.0507 10.2915 60.7247 11.2441 58.8196C11.277 58.7861 11.277 58.7532 11.277 58.6847C11.277 58.6156 11.1755 58.4791 11.005 58.4791V58.4791ZM14.915 48.4167C14.9122 48.7134 14.793 48.9971 14.5831 49.2068C14.3731 49.4164 14.0892 49.5352 13.7925 49.5376C13.4959 49.5354 13.212 49.4166 13.0023 49.2068C12.7926 48.9971 12.6738 48.7133 12.6715 48.4167C12.6737 48.1199 12.7925 47.8358 13.0022 47.6257C13.2118 47.4157 13.4957 47.2964 13.7925 47.2936C13.9404 47.292 14.0871 47.3199 14.2241 47.3758C14.3611 47.4316 14.4855 47.5143 14.5901 47.6189C14.6946 47.7235 14.7772 47.848 14.833 47.985C14.8888 48.122 14.9167 48.2687 14.915 48.4167ZM14.643 61.5731V50.6601H12.9765V61.5736C12.9765 61.7436 13.1135 61.8456 13.2485 61.8456H14.371C14.541 61.8456 14.643 61.7107 14.643 61.5736V61.5731ZM21.9185 50.3881C20.219 50.4567 18.8601 51.2721 18.009 52.5291V50.9672C18.0095 50.9313 18.0028 50.8957 17.9893 50.8625C17.9758 50.8293 17.9558 50.7991 17.9304 50.7737C17.9051 50.7484 17.8749 50.7284 17.8417 50.7149C17.8085 50.7014 17.7729 50.6947 17.737 50.6952H16.615C16.5791 50.6945 16.5435 50.7011 16.5103 50.7145C16.477 50.7279 16.4468 50.7479 16.4214 50.7732C16.396 50.7986 16.376 50.8287 16.3625 50.862C16.3491 50.8952 16.3424 50.9308 16.343 50.9667V61.6087C16.343 61.7787 16.4801 61.8801 16.615 61.8801H17.7375C17.9075 61.8801 18.0095 61.7436 18.0095 61.6087V56.2712C18.0095 54.0612 19.7446 52.2247 21.9195 52.0876C22.0895 52.0876 22.191 51.9527 22.191 51.8156V50.6601C22.2266 50.4901 22.0895 50.3887 21.919 50.3887L21.9185 50.3881ZM33.1039 58.4791H31.813C31.7681 58.4781 31.7236 58.4869 31.6824 58.5048C31.6412 58.5226 31.6044 58.5492 31.5745 58.5827C30.8275 59.7036 29.5345 60.4176 28.107 60.4176C25.795 60.4176 23.8899 58.5476 23.8899 56.2027C23.8871 55.6481 23.9942 55.0984 24.2051 54.5854C24.416 54.0725 24.7265 53.6065 25.1187 53.2143C25.5108 52.8221 25.9768 52.5116 26.4898 52.3007C27.0027 52.0898 27.5524 51.9827 28.107 51.9856C29.5701 51.9856 30.8275 52.7347 31.5745 53.8221C31.6045 53.8555 31.6415 53.8818 31.6828 53.8995C31.724 53.9171 31.7687 53.9255 31.8135 53.9241H33.1045C33.2745 53.9241 33.3781 53.7871 33.3781 53.6521C33.3781 53.6192 33.3781 53.5507 33.3425 53.5151C32.3899 51.6121 30.3855 50.2861 28.107 50.2861C24.8425 50.2861 22.2261 52.9052 22.2261 56.1671C22.2233 56.9403 22.3734 57.7064 22.668 58.4213C22.9625 59.1362 23.3955 59.7858 23.9421 60.3327C24.4887 60.8796 25.1382 61.3129 25.8529 61.6077C26.5677 61.9026 27.3338 62.0531 28.107 62.0507C30.4185 62.0507 32.3899 60.7247 33.3425 58.8196C33.3781 58.7861 33.3781 58.7532 33.3781 58.6847C33.3781 58.6156 33.241 58.4791 33.1039 58.4791V58.4791ZM36.4699 47.0221H35.349C35.3132 47.0217 35.2777 47.0284 35.2446 47.0419C35.2115 47.0554 35.1814 47.0754 35.1561 47.1007C35.1308 47.126 35.1108 47.1561 35.0973 47.1892C35.0838 47.2223 35.0771 47.2578 35.0775 47.2936V61.5736C35.0775 61.7436 35.2125 61.8451 35.3495 61.8451H36.4705C36.6405 61.8451 36.7441 61.7101 36.7441 61.5731V47.2936C36.7444 47.2576 36.7376 47.2219 36.7239 47.1887C36.7102 47.1554 36.69 47.1252 36.6644 47.0999C36.6389 47.0746 36.6085 47.0546 36.5751 47.0413C36.5417 47.0279 36.5059 47.0214 36.4699 47.0221V47.0221ZM44.2915 50.3547C43.5183 50.3519 42.7522 50.502 42.0373 50.7965C41.3223 51.0911 40.6728 51.5241 40.1259 52.0707C39.579 52.6173 39.1457 53.2667 38.8508 53.9815C38.556 54.6963 38.4055 55.4624 38.4079 56.2356C38.4079 59.5001 41.027 62.1192 44.2915 62.1192C46.603 62.1192 48.5745 60.7932 49.527 58.8881C49.5605 58.8547 49.5605 58.8191 49.5605 58.7532C49.5612 58.7172 49.5547 58.6814 49.5413 58.6479C49.5279 58.6145 49.5079 58.5841 49.4825 58.5585C49.4572 58.5329 49.4269 58.5127 49.3936 58.4991C49.3602 58.4854 49.3245 58.4786 49.2885 58.4791H47.9975C47.9527 58.4781 47.9081 58.4869 47.8669 58.5048C47.8258 58.5226 47.7889 58.5492 47.759 58.5827C47.0121 59.7036 45.719 60.4176 44.2915 60.4176C42.1495 60.4176 40.415 58.8196 40.143 56.7796H49.9005C49.9364 56.7802 49.972 56.7736 50.0053 56.7602C50.0386 56.7468 50.0689 56.7268 50.0942 56.7014C50.1196 56.676 50.1396 56.6457 50.1531 56.6124C50.1665 56.5792 50.1731 56.5435 50.1725 56.5076V56.2027C50.1725 53.0067 47.5555 50.3547 44.2915 50.3547V50.3547ZM40.245 55.1487C40.7199 53.3801 42.353 52.0541 44.2915 52.0541C46.2295 52.0541 47.8605 53.3451 48.3381 55.1487H40.245ZM66.4585 46.7172C66.0172 46.7177 65.5941 46.8932 65.2818 47.205C64.9695 47.5169 64.7936 47.9398 64.7925 48.3811C64.7925 49.3001 65.5415 50.0476 66.4585 50.0476C66.9003 50.0472 67.324 49.8715 67.6364 49.559C67.9489 49.2466 68.1246 48.8229 68.125 48.3811C68.125 47.4971 67.3781 46.7172 66.4585 46.7172V46.7172ZM67.853 50.6596V61.5731C67.853 61.7431 67.7159 61.8451 67.5815 61.8451H65.3381C65.302 61.8458 65.2663 61.8392 65.2328 61.8259C65.1994 61.8125 65.169 61.7925 65.1434 61.7671C65.1178 61.7417 65.0976 61.7115 65.084 61.6782C65.0703 61.6448 65.0635 61.6091 65.0639 61.5731V50.6601L67.853 50.6596ZM57.755 62.1187C60.509 62.1187 62.7875 60.2471 63.4659 57.6987V57.6301C63.4665 57.5943 63.4599 57.5588 63.4464 57.5256C63.433 57.4924 63.413 57.4622 63.3877 57.4369C63.3624 57.4116 63.3322 57.3916 63.299 57.3782C63.2658 57.3647 63.2303 57.3581 63.1945 57.3587H60.8145C60.7623 57.3592 60.7116 57.3758 60.6692 57.4063C60.6268 57.4367 60.5948 57.4794 60.5775 57.5287C60.1005 58.5827 59.013 59.3296 57.7885 59.3296C56.0885 59.3296 54.6945 57.9356 54.6945 56.2356C54.6945 54.5361 56.089 53.1416 57.7885 53.1416C59.0459 53.1416 60.1005 53.8907 60.5775 54.9452C60.5948 54.9941 60.6268 55.0365 60.6691 55.0666C60.7115 55.0966 60.762 55.1129 60.8139 55.1131H63.1939C63.3645 55.1131 63.4659 54.9781 63.4659 54.8411V54.7747C62.821 52.2247 60.509 50.3547 57.755 50.3547C56.9818 50.3519 56.2158 50.5021 55.5009 50.7967C54.786 51.0912 54.1365 51.5243 53.5897 52.0709C53.0429 52.6175 52.6096 53.2669 52.3148 53.9817C52.02 54.6964 51.8695 55.4624 51.8719 56.2356C51.8719 59.5001 54.491 62.1192 57.755 62.1192V62.1187ZM29.603 23.7656C29.603 21.4207 31.5059 19.5156 33.853 19.5156C36.1979 19.5156 38.103 21.4207 38.103 23.7656C38.103 26.1127 36.1979 28.0156 33.853 28.0156C31.5059 28.0512 29.603 26.1127 29.603 23.7656ZM33.853 5.88159C25.4879 5.88159 18.4839 11.5947 16.513 19.3456C16.513 19.4141 16.4795 19.4492 16.4795 19.5156C16.4795 19.9932 16.853 20.3667 17.3285 20.3667H24.5375C24.8775 20.3667 25.183 20.1632 25.3201 19.8561C26.8139 16.6272 30.045 14.3816 33.853 14.3816C39.0205 14.3816 43.237 18.5987 43.237 23.7656C43.237 28.9347 39.0205 33.1496 33.853 33.1496C30.0785 33.1496 26.8139 30.9067 25.3201 27.6777C25.2528 27.5262 25.1431 27.3973 25.0043 27.3068C24.8654 27.2162 24.7033 27.1677 24.5375 27.1672H17.3285C16.853 27.1672 16.4795 27.5407 16.4795 28.0156C16.4795 28.0847 16.4795 28.1197 16.513 28.1856C18.4839 35.9387 25.4879 41.6496 33.853 41.6496C43.7475 41.6496 51.7705 33.6272 51.7705 23.7327C51.7705 13.8732 43.7475 5.88159 33.853 5.88159V5.88159Z" fill="#343434"/>
</svg>
