<svg width="67" height="66" viewBox="0 0 67 66" fill="none" xmlns="http://www.w3.org/2000/svg">
<path d="M39.252 26.0845C35.3049 26.0845 33.3435 28.1449 33.3435 31.1118C33.3435 33.0217 34.2984 34.3747 35.5627 34.9939C34.9435 35.5616 34.4279 36.0582 33.9633 36.548C33.4982 37.0389 33.2146 37.5571 33.2146 38.1253C33.2146 38.8225 33.4982 39.4685 34.35 39.8284C33.4471 40.6813 32.9305 41.3 32.9305 42.4617C32.9305 44.5 34.7109 45.6875 39.3815 45.6875C43.8715 45.6875 46.477 44.0112 46.477 41.0433C46.477 37.6128 43.8457 37.4834 39.3815 37.1988L36.8528 37.0441L37.7047 35.6766C38.1682 35.8055 38.9174 35.9087 39.7439 35.9087C42.9944 35.9087 45.2395 34.2318 45.2395 31.367C45.2395 30.1801 44.6532 29.3546 44.1892 28.7606L46.4687 28.5801V26.2969H41.6265C41.0335 26.2969 40.3617 26.0845 39.252 26.0845V26.0845ZM40.4132 40.7854C41.6528 40.8628 42.6335 40.9143 42.6335 41.7414C42.6335 43.1331 40.5942 43.2378 39.0984 43.2378C37.2916 43.2378 35.9758 42.9273 35.9758 41.8956C35.9758 41.3789 36.3109 40.9406 36.6471 40.5281L40.4132 40.7854V40.7854ZM39.4083 33.1996C37.7047 33.1996 37.008 32.3215 37.008 31.0577C37.008 29.3803 38.0656 28.6832 39.4851 28.6832C40.9557 28.6832 41.8333 29.4835 41.8333 31.0056C41.8333 32.3483 40.8525 33.1996 39.4083 33.1996ZM51.1986 24.072C52.6949 24.072 53.5467 23.2202 53.5467 21.7486C53.5467 20.279 52.6949 19.4783 51.1986 19.4783C49.7275 19.4783 48.8757 20.279 48.8757 21.7486C48.8757 23.2196 49.7275 24.072 51.1986 24.072ZM53.1719 36.844V26.2969H48.1533L47.8697 28.3058L49.2449 28.7564C49.5037 28.8333 49.5625 28.9745 49.5625 29.2581V36.844C49.5625 37.2318 49.3449 37.3091 48.9834 37.3612L47.5 37.5416V39.7031H55.2344V37.5416L53.7514 37.3612C53.3631 37.3091 53.1719 37.2581 53.1719 36.844ZM64.7311 36.3078C64.1114 36.5398 63.374 36.7197 62.6506 36.7197C61.2579 36.7197 60.9062 36.1268 60.9062 34.6041V28.3594H64.5156V25.7813H61.0929C60.8861 25.7813 60.9062 25.7797 60.9062 25.5993V22.1719H58.4348C58.1512 24.75 56.7812 25.8823 54.7187 26.1412V28.3594H56.7828C56.9895 28.3594 56.7812 28.5414 56.7812 28.6956V35.4559C56.7812 38.3728 58.0466 39.6108 61.1166 39.6108C62.5882 39.6108 64.2655 39.1205 65.3757 38.5791L64.7311 36.3078V36.3078ZM15.3961 20.0094C15.2345 19.8478 15.0427 19.7196 14.8316 19.6321C14.6204 19.5447 14.3941 19.4997 14.1656 19.4997C13.9371 19.4997 13.7108 19.5447 13.4996 19.6321C13.2885 19.7196 13.0967 19.8478 12.9351 20.0094L10.4853 22.4591L13.593 25.5668C13.9595 25.442 14.3536 25.4227 14.7305 25.511C15.1075 25.5994 15.452 25.7919 15.7248 26.0665C15.9976 26.3412 16.1878 26.687 16.2736 27.0645C16.3595 27.442 16.3375 27.836 16.2103 28.2016L19.2056 31.1969C19.6482 31.0429 20.13 31.0439 20.5721 31.1995C21.0142 31.3552 21.3903 31.6563 21.6388 32.0536C21.8874 32.4509 21.9937 32.9209 21.9403 33.3865C21.8869 33.8521 21.677 34.2858 21.3449 34.6165C21.1527 34.809 20.9244 34.9616 20.6731 35.0658C20.4219 35.17 20.1525 35.2236 19.8805 35.2236C19.6085 35.2236 19.3392 35.17 19.0879 35.0658C18.8366 34.9616 18.6084 34.809 18.4162 34.6165C17.8077 34.0076 17.5788 33.114 17.8876 32.3643L15.0156 29.5711V36.9224C15.0156 37.0198 15.4771 37.1498 15.6416 37.3137C16.4501 38.1222 16.4893 39.433 15.6802 40.243C15.4898 40.4351 15.2633 40.5876 15.0136 40.6916C14.7639 40.7957 14.4961 40.8493 14.2257 40.8493C13.9552 40.8493 13.6874 40.7957 13.4377 40.6916C13.1881 40.5876 12.9615 40.4351 12.7711 40.243C11.9626 39.433 11.9724 38.1228 12.7814 37.3137C12.9815 37.1142 12.9531 36.9631 13.4687 36.862V29.4427C12.9531 29.3417 12.9907 29.1916 12.7912 28.991C12.5007 28.7005 12.3032 28.3302 12.2237 27.9271C12.1443 27.524 12.1866 27.1064 12.3452 26.7274L9.28134 23.6631L1.1917 31.7527C1.02996 31.9143 0.901658 32.1062 0.814117 32.3173C0.726577 32.5285 0.681519 32.7549 0.681519 32.9835C0.681519 33.2121 0.726577 33.4385 0.814117 33.6497C0.901658 33.8609 1.02996 34.0527 1.1917 34.2143L12.9902 46.0123C13.3167 46.3384 13.7593 46.5216 14.2208 46.5216C14.6822 46.5216 15.1248 46.3384 15.4513 46.0123L27.1947 34.2685C27.5208 33.9419 27.704 33.4992 27.704 33.0377C27.704 32.5761 27.5208 32.1334 27.1947 31.8069L15.3961 20.0094V20.0094Z" fill="#F34F29"/>
</svg>
