<svg width="81" height="80" viewBox="0 0 81 80" fill="none" xmlns="http://www.w3.org/2000/svg">
<path d="M43.125 23.6875H43.8125L45.75 21.75L45.875 20.9375C44.375 19.5625 42.3125 18.75 40.0625 18.75C36.0625 18.75 32.625 21.5 31.625 25.1875C31.8125 25.0625 32.3125 25.125 32.3125 25.125L36.1875 24.5C36.1875 24.5 36.375 24.1875 36.5 24.1875C38.25 22.3125 41.125 22.125 43.125 23.6875Z" fill="#EA4535"/>
<path d="M48.5625 25.1875C48.0625 23.5625 47.1875 22.0625 45.875 20.9375L43.125 23.6875C44.3125 24.625 44.9375 26 44.9375 27.5V28C46.25 28 47.375 29.0625 47.375 30.4375C47.375 31.75 46.3125 32.8125 44.9375 32.8125H40.0625L39.5625 33.3125V36.25L40.0625 36.75H44.9375C48.4375 36.75 51.25 33.9375 51.25 30.4375C51.25 28.3125 50.1875 26.375 48.5 25.25L48.5625 25.1875Z" fill="#557EBF"/>
<path d="M35.25 36.6875H40.125V32.8125H35.25C34.875 32.8125 34.5625 32.75 34.25 32.625L33.5625 32.8125L31.625 34.75L31.4375 35.375C32.5 36.25 33.875 36.6875 35.25 36.6875Z" fill="#36A852"/>
<path d="M35.25 24.0625C31.75 24.0625 28.9375 26.875 28.9375 30.375C28.9375 32.375 29.875 34.25 31.4375 35.4375L34.25 32.625C33.375 32.1875 32.8125 31.375 32.8125 30.375C32.8125 29.0625 33.875 27.9375 35.25 27.9375C36.1875 28 37.0625 28.5625 37.4375 29.375L40.25 26.5625C39.125 25.0625 37.25 24.0625 35.25 24.0625V24.0625Z" fill="#F9BC15"/>
<path d="M10.125 48.9375C8.8125 48.9375 7.6875 48.4375 6.6875 47.5C5.6875 46.5625 5.25 45.5 5.25 44.125C5.25 42.75 5.75 41.6875 6.6875 40.75C7.625 39.8125 8.8125 39.3125 10.125 39.3125C11.3125 39.375 12.5 39.8125 13.375 40.6875L12.4375 41.625C11.8125 41 11 40.6875 10.0625 40.6875C9.125 40.6875 8.3125 41 7.625 41.6875C7 42.3125 6.625 43.25 6.6875 44.125C6.6875 45.0625 7 45.9375 7.6875 46.5625C8.3125 47.3125 9.1875 47.625 10.0625 47.625C11.0625 47.625 11.8125 47.3125 12.5 46.6875C12.875 46.3125 13.125 45.75 13.1875 45.0625H10.125V43.75H14.5C14.5625 44 14.5625 44.25 14.5625 44.5625C14.5625 45.875 14.1875 46.875 13.4375 47.625C12.5625 48.5 11.5 49 10.125 49V48.9375ZM20.375 48.0625C19.75 48.625 19.0625 48.9375 18.1875 48.9375C17.3125 48.9375 16.5625 48.625 16 48.0625C15.4375 47.5 15.125 46.75 15.125 45.875C15.125 45 15.4375 44.25 16 43.6875C16.5625 43.125 17.3125 42.8125 18.1875 42.8125C19.0625 42.8125 19.8125 43.125 20.375 43.6875C20.9375 44.25 21.25 45 21.25 45.875C21.25 46.75 20.9375 47.5 20.375 48.0625ZM16.9375 47.1875C17.25 47.5625 17.6875 47.75 18.125 47.75C18.625 47.75 19 47.5625 19.375 47.1875C19.75 46.8125 19.875 46.375 19.875 45.875C19.875 45.3125 19.6875 44.875 19.375 44.5C19.0625 44.125 18.625 44 18.125 44C17.6875 44 17.1875 44.1875 16.875 44.5C16.5625 44.875 16.375 45.3125 16.375 45.875C16.375 46.4375 16.5625 46.875 16.875 47.1875H16.9375ZM27.125 48.0625C26.5 48.625 25.8125 48.9375 24.9375 48.9375C24.0625 48.9375 23.3125 48.625 22.75 48.0625C22.1875 47.5 21.875 46.75 21.875 45.875C21.875 45 22.1875 44.25 22.75 43.6875C23.3125 43.125 24.0625 42.8125 24.9375 42.8125C25.8125 42.8125 26.5625 43.125 27.125 43.6875C27.6875 44.25 28 45 28 45.875C28 46.75 27.6875 47.5 27.125 48.0625ZM23.6875 47.1875C24 47.5625 24.4375 47.75 24.875 47.75C25.375 47.75 25.75 47.5625 26.125 47.1875C26.5 46.8125 26.625 46.375 26.625 45.875C26.625 45.3125 26.4375 44.875 26.125 44.5C25.8125 44.125 25.375 44 24.875 44C24.4375 44 23.9375 44.1875 23.625 44.5C23.3125 44.875 23.125 45.3125 23.125 45.875C23.125 46.4375 23.3125 46.875 23.625 47.1875H23.6875ZM31.5625 51.6875C30.875 51.6875 30.3125 51.5 29.8125 51.125C29.3125 50.75 29 50.3125 28.8125 49.875L30 49.375C30.125 49.6875 30.3125 49.9375 30.5625 50.125C30.8125 50.3125 31.125 50.4375 31.5625 50.4375C32.0625 50.4375 32.5 50.25 32.75 50C33 49.75 33.1875 49.25 33.1875 48.625V48.1875H33.125C32.75 48.625 32.1875 48.875 31.5 48.875C30.6875 48.875 30 48.5625 29.4375 48C28.8125 47.5 28.5 46.6875 28.5625 45.875C28.5 45.0625 28.8125 44.25 29.4375 43.6875C30 43.0625 30.6875 42.8125 31.5 42.8125C31.875 42.8125 32.1875 42.875 32.4375 43C32.6875 43.125 32.9375 43.3125 33.125 43.5H33.1875V43H34.5V48.5625C34.5 49.625 34.25 50.4375 33.6875 51C33.125 51.5 32.4375 51.8125 31.5625 51.8125V51.6875ZM31.625 47.6875C32.0625 47.75 32.5 47.5625 32.75 47.1875C33.0625 46.8125 33.25 46.375 33.25 45.875C33.25 45.3125 33.0625 44.875 32.75 44.5C32.5 44.1875 32.0625 44 31.625 44C31.125 44 30.75 44.1875 30.4375 44.5625C30.125 44.9375 29.9375 45.375 29.9375 45.9375C29.9375 46.4375 30.125 46.9375 30.4375 47.25C30.75 47.5625 31.1875 47.8125 31.625 47.8125V47.6875ZM36.75 39.625V48.6875H35.375V39.625H36.75ZM40.4375 48.875C39.5625 48.875 38.8125 48.5625 38.25 48C37.6875 47.4375 37.375 46.6875 37.375 45.8125C37.375 44.9375 37.6875 44.1875 38.25 43.5625C38.75 43.0625 39.5 42.75 40.3125 42.75C40.6875 42.75 41.0625 42.8125 41.375 42.9375C41.625 43.125 41.875 43.25 42.125 43.5C42.3125 43.6875 42.5 43.875 42.625 44.125C42.75 44.3125 42.875 44.5 42.9375 44.75L43.0625 45.125L38.9375 46.8125C39.25 47.4375 39.75 47.75 40.4375 47.75C41.0625 47.75 41.5625 47.4375 41.9375 46.875L43 47.5625C42.75 47.9375 42.4375 48.25 42 48.5C41.5625 48.75 41.0625 48.9375 40.4375 48.9375V48.875ZM38.75 45.6875L41.5 44.5625C41.4375 44.375 41.25 44.1875 41.0625 44.0625C40.8125 44 40.5625 43.9375 40.3125 43.9375C39.9375 43.9375 39.5625 44.125 39.1875 44.4375C38.8125 44.75 38.6875 45.1875 38.6875 45.75L38.75 45.6875ZM50.1875 48.875C48.9375 48.875 47.9375 48.4375 47.0625 47.625C46.1875 46.8125 45.8125 45.75 45.8125 44.5C45.8125 43.25 46.25 42.1875 47.0625 41.375C47.875 40.5625 48.9375 40.125 50.1875 40.125C51.4375 40.125 52.5 40.5625 53.25 41.5L52.5 42.25C51.9375 41.5625 51.125 41.1875 50.1875 41.1875C49.25 41.1875 48.5 41.5 47.875 42.125C47.25 42.75 46.9375 43.5625 46.9375 44.5625C46.9375 45.5625 47.25 46.375 47.875 47C48.5 47.625 49.25 47.9375 50.1875 47.9375C51.1875 47.9375 52.0625 47.5625 52.75 46.75L53.5 47.5C53.125 47.9375 52.625 48.3125 52.0625 48.5625C51.4375 48.8125 50.8125 48.9375 50.1875 48.9375V48.875ZM55.5625 48.6875H54.5V40.375H55.5625V48.6875ZM57.3125 43.625C57.875 43.0625 58.5625 42.75 59.4375 42.75C60.3125 42.75 61 43.0625 61.5625 43.625C62.125 44.1875 62.375 44.9375 62.375 45.8125C62.375 46.6875 62.125 47.4375 61.5625 48C61 48.5625 60.3125 48.875 59.4375 48.875C58.5625 48.875 57.875 48.5625 57.3125 48C56.75 47.4375 56.5 46.6875 56.5 45.8125C56.5 44.9375 56.75 44.1875 57.3125 43.625ZM58.125 47.3125C58.5 47.6875 58.9375 47.875 59.4375 47.875C59.9375 47.875 60.375 47.6875 60.75 47.3125C61.125 46.9375 61.3125 46.4375 61.3125 45.8125C61.3125 45.1875 61.125 44.6875 60.75 44.3125C60.375 43.9375 59.9375 43.75 59.4375 43.75C58.9375 43.75 58.5 43.9375 58.125 44.3125C57.75 44.6875 57.5625 45.1875 57.5625 45.8125C57.5625 46.4375 57.75 46.9375 58.125 47.3125ZM68.3125 48.6875H67.3125V47.875H67.25C67.0625 48.125 66.8125 48.375 66.5 48.5625C66.1875 48.75 65.8125 48.875 65.4375 48.875C64.75 48.875 64.1875 48.6875 63.8125 48.25C63.4375 47.8125 63.25 47.25 63.25 46.5V43H64.3125V46.3125C64.3125 47.375 64.8125 47.9375 65.75 47.9375C66.125 47.9375 66.5625 47.75 66.8125 47.4375C67.0625 47.0625 67.1875 46.625 67.1875 46.1875V43.0625H68.25V48.8125L68.3125 48.6875ZM71.9375 48.875C71.1875 48.875 70.5625 48.5625 70 48C69.4375 47.4375 69.1875 46.6875 69.1875 45.8125C69.1875 44.9375 69.4375 44.25 70 43.625C70.5625 43 71.1875 42.75 71.9375 42.75C72.375 42.75 72.75 42.875 73.125 43C73.5 43.125 73.75 43.4375 73.875 43.6875H73.9375L73.875 42.875V40.25H74.9375V48.625H73.9375V47.8125H73.875C73.6875 48.0625 73.4375 48.3125 73.125 48.5C72.75 48.6875 72.375 48.75 71.9375 48.75V48.875ZM72.125 47.875C72.5625 47.9375 73.0625 47.75 73.375 47.375C73.75 47 73.875 46.5 73.875 45.875C73.875 45.25 73.6875 44.75 73.375 44.375C73.0625 44.0625 72.5625 43.8125 72.125 43.8125C71.625 43.8125 71.1875 44 70.8125 44.375C70.4375 44.75 70.25 45.25 70.25 45.875C70.25 46.5 70.4375 47 70.8125 47.375C71.125 47.75 71.625 48 72.125 48V47.875Z" fill="#5F6368"/>
</svg>
