<svg width="69" height="68" viewBox="0 0 69 68" fill="none" xmlns="http://www.w3.org/2000/svg">
<path d="M18.9243 38.1385L17.3906 37.2555L34.4714 7.80835L36.003 8.6881L18.9243 38.1385Z" fill="#E434AA"/>
<path d="M17.04 34.9031H51.1994V36.6668H17.04V34.9031Z" fill="#E434AA"/>
<path d="M34.8013 45.7141L17.7163 35.8945L18.6003 34.3671L35.6874 44.1873L34.8013 45.7141ZM49.6455 20.119L32.5578 10.2994L33.444 8.77417L50.5295 18.5938L49.6455 20.119Z" fill="#E434AA"/>
<path d="M18.6046 20.1131L17.7206 18.5873L34.8077 8.7677L35.6917 10.2929L18.6046 20.1131Z" fill="#E434AA"/>
<path d="M49.3299 38.1385L32.2497 8.6881L33.7829 7.80835L50.8642 37.2555L49.3299 38.1385ZM18.3947 17.4197H20.1654V37.059H18.3947V17.4197Z" fill="#E434AA"/>
<path d="M48.0847 17.4197H49.8548V37.0589H48.0847V17.4197Z" fill="#E434AA"/>
<path d="M34.5006 44.9677L33.7266 43.6353L48.5872 35.0939L49.3613 36.4257L34.5006 44.9677Z" fill="#E434AA"/>
<path d="M52.2019 37.6316C51.1792 39.406 48.8964 40.01 47.1157 38.9911C46.6926 38.7492 46.3214 38.4261 46.0236 38.0403C45.7258 37.6544 45.5071 37.2136 45.3802 36.743C45.2534 36.2724 45.2208 35.7814 45.2843 35.2982C45.3478 34.8149 45.5062 34.349 45.7504 33.9272C46.7736 32.1528 49.0558 31.5493 50.8366 32.5683C52.6295 33.5973 53.2378 35.8594 52.2019 37.6311M22.4896 20.5509C21.4664 22.3231 19.1836 22.9287 17.4029 21.9098C16.9798 21.6677 16.6087 21.3443 16.311 20.9584C16.0132 20.5724 15.7946 20.1314 15.6677 19.6608C15.5409 19.1901 15.5082 18.699 15.5717 18.2157C15.6352 17.7323 15.7935 17.2663 16.0376 16.8443C17.0607 15.0721 19.3435 14.4659 21.1237 15.4849C22.9045 16.5166 23.5122 18.7765 22.4891 20.5509M16.0482 37.6316C15.0229 35.8594 15.6312 33.5973 17.4135 32.5683C19.1942 31.5493 21.4664 32.1528 22.4997 33.9272C23.525 35.6995 22.9167 37.9615 21.1344 38.9911C19.3435 40.01 17.0708 39.4055 16.0482 37.6311M45.7605 20.5509C44.7378 18.7765 45.3461 16.5166 47.1258 15.4849C48.9065 14.4659 51.1792 15.0721 52.2125 16.8443C53.2378 18.6187 52.6295 20.8787 50.8472 21.9098C49.0664 22.9287 46.7837 22.3231 45.7605 20.5509ZM34.125 48.0261C32.0664 48.0261 30.402 46.3702 30.402 44.3201C30.402 42.2716 32.0664 40.6157 34.125 40.6157C36.1836 40.6157 37.848 42.2716 37.848 44.3201C37.848 46.3579 36.1836 48.0261 34.125 48.0261M34.125 13.8624C32.0664 13.8624 30.402 12.2065 30.402 10.1559C30.402 8.10793 32.0664 6.45203 34.125 6.45203C36.1836 6.45203 37.848 8.10793 37.848 10.1559C37.848 12.2065 36.1836 13.8624 34.125 13.8624M56.7696 64.5511C56.7257 64.5534 56.6819 64.5466 56.6408 64.5313C56.5997 64.5159 56.5621 64.4923 56.5305 64.4619C56.4998 64.4303 56.4759 64.3929 56.4603 64.3517C56.4447 64.3106 56.4377 64.2667 56.4397 64.2228V54.4138C56.4397 54.3139 56.4705 54.2332 56.531 54.1732C56.5626 54.1428 56.6 54.1192 56.6411 54.1038C56.6821 54.0885 56.7258 54.0817 56.7696 54.0839H57.0564C57.1558 54.0839 57.2365 54.1126 57.2966 54.1732C57.327 54.2051 57.3506 54.2429 57.3659 54.2843C57.3812 54.3257 57.388 54.3697 57.3858 54.4138V63.6544H62.5697C62.6797 63.6544 62.7647 63.6836 62.8247 63.7436C62.8853 63.8042 62.914 63.8892 62.914 63.997V64.2233C62.9162 64.2671 62.9094 64.3108 62.8941 64.3518C62.8787 64.3929 62.8551 64.4303 62.8247 64.4619C62.7647 64.5219 62.6797 64.5511 62.5697 64.5511H56.7696ZM53.3 65.5222C53.2463 65.5228 53.1931 65.5118 53.1441 65.49C53.095 65.4682 53.0513 65.436 53.0157 65.3958C52.9482 65.3259 52.883 65.2538 52.8202 65.1796L52.1583 64.2669C51.5585 64.5554 50.8573 64.7004 50.0562 64.7004C49.2242 64.7004 48.5187 64.5532 47.9375 64.2605C47.3563 63.9657 46.9101 63.5115 46.6009 62.8989C46.2896 62.2848 46.1196 61.5108 46.0909 60.5731C46.0803 60.1247 46.0739 59.7056 46.0739 59.3172C46.0739 58.9294 46.0803 58.5097 46.0904 58.0619C46.1196 57.1343 46.3002 56.3646 46.6301 55.7499C46.96 55.1379 47.4185 54.6816 48.0061 54.3825C48.591 54.0839 49.2742 53.9341 50.0567 53.9341C50.8366 53.9341 51.5192 54.0839 52.1068 54.3825C52.6917 54.6816 53.1523 55.1379 53.4886 55.7499C53.8232 56.3646 54.0012 57.1343 54.0219 58.0619C54.0403 58.4801 54.0501 58.8986 54.0512 59.3172C54.0512 59.7051 54.0405 60.1247 54.0219 60.5731C53.972 61.9985 53.6049 63.0466 52.9244 63.7149L53.887 65.059C53.8991 65.0751 53.909 65.0928 53.9162 65.1116C53.9268 65.136 53.9306 65.1737 53.9306 65.2232C53.931 65.2624 53.9233 65.3013 53.9079 65.3374C53.8925 65.3735 53.8699 65.4061 53.8413 65.433C53.8143 65.4613 53.7819 65.4839 53.7459 65.4992C53.7099 65.5146 53.6711 65.5224 53.632 65.5222H53.3ZM50.0562 63.8042C50.9173 63.8042 51.6249 63.5444 52.1812 63.0259C52.7374 62.5069 53.0343 61.6643 53.0758 60.4982C53.0944 60.0498 53.105 59.6557 53.105 59.3172C53.105 58.9794 53.0944 58.5847 53.0758 58.1368C53.0545 57.3585 52.9116 56.7253 52.646 56.2376C52.3804 55.7483 52.0255 55.3929 51.5792 55.1671C51.1357 54.9429 50.6267 54.8308 50.0562 54.8308C49.4941 54.8308 48.9915 54.9424 48.5458 55.1671C48.0996 55.3934 47.7447 55.7483 47.4791 56.2376C47.2134 56.7253 47.0657 57.3585 47.0371 58.1368C47.0264 58.5847 47.0201 58.9794 47.0201 59.3172C47.0201 59.6557 47.0264 60.0504 47.0371 60.4982C47.0764 61.6643 47.3771 62.5069 47.9375 63.0259C48.498 63.5444 49.2035 63.8042 50.0562 63.8042ZM37.7667 64.5511C37.723 64.5533 37.6793 64.5465 37.6382 64.5312C37.5972 64.5158 37.5598 64.4922 37.5282 64.4619C37.4975 64.4304 37.4735 64.3929 37.4578 64.3518C37.442 64.3107 37.4349 64.2668 37.4368 64.2228V54.2619C37.4368 54.1625 37.4682 54.0839 37.5282 54.0233C37.5598 53.9929 37.5974 53.9693 37.6385 53.9539C37.6796 53.9386 37.7234 53.9318 37.7673 53.9341H38.0223C38.1237 53.9341 38.2029 53.9633 38.2629 54.0233C38.2937 54.0548 38.3177 54.0923 38.3334 54.1334C38.3491 54.1745 38.3562 54.2184 38.3543 54.2624V57.8064C38.6217 57.4596 38.9564 57.1703 39.3382 56.9558C39.7239 56.7359 40.236 56.6259 40.8777 56.6259C41.5583 56.6259 42.1272 56.7731 42.5815 57.0679C43.0383 57.3601 43.3783 57.7586 43.6047 58.2632C43.8288 58.7679 43.9425 59.338 43.9425 59.9755V64.2233C43.9444 64.2672 43.9374 64.311 43.9218 64.352C43.9061 64.393 43.8823 64.4304 43.8517 64.4619C43.8198 64.4925 43.7819 64.5162 43.7404 64.5316C43.6989 64.5469 43.6547 64.5536 43.6105 64.5511H43.3555C43.3114 64.5533 43.2674 64.5465 43.226 64.5312C43.1846 64.5159 43.1468 64.4923 43.1148 64.4619C43.0844 64.4302 43.0608 64.3927 43.0454 64.3516C43.0301 64.3105 43.0233 64.2666 43.0256 64.2228V60.0498C43.0256 59.253 42.8306 58.6261 42.4402 58.174C42.0481 57.7192 41.4775 57.4935 40.7263 57.4935C40.0166 57.4935 39.4439 57.7192 39.0077 58.1735C38.5721 58.6261 38.3543 59.253 38.3543 60.0498V64.2233C38.3562 64.2672 38.349 64.311 38.3333 64.3521C38.3176 64.3931 38.2936 64.4304 38.2629 64.4619C38.2311 64.4924 38.1933 64.5161 38.1519 64.5315C38.1105 64.5468 38.0664 64.5535 38.0223 64.5511H37.7667ZM29.041 67.3917C28.9969 67.3941 28.9528 67.3874 28.9114 67.3721C28.87 67.3567 28.8322 67.333 28.8003 67.3025C28.7696 67.271 28.7457 67.2337 28.73 67.1926C28.7142 67.1516 28.7071 67.1078 28.7089 67.0639V57.1051C28.7089 57.0058 28.7397 56.9245 28.8003 56.8645C28.8322 56.8339 28.87 56.8102 28.9114 56.7949C28.9528 56.7795 28.9969 56.7728 29.041 56.7752H29.296C29.3958 56.7752 29.4766 56.8044 29.5366 56.8645C29.567 56.8964 29.5906 56.9343 29.606 56.9756C29.6213 57.017 29.6281 57.0611 29.6259 57.1051V57.8064C29.8772 57.4685 30.2049 57.1864 30.6097 56.9617C31.0162 56.738 31.5288 56.6259 32.1493 56.6259C32.7411 56.6259 33.2368 56.7274 33.6373 56.933C34.0222 57.1232 34.3564 57.402 34.6127 57.7463C34.864 58.0863 35.0483 58.4646 35.1689 58.8832C35.289 59.3029 35.3533 59.7306 35.3639 60.1704C35.3745 60.3197 35.3782 60.4839 35.3782 60.6645C35.3782 60.8425 35.3745 61.0066 35.3639 61.1559C35.3545 61.5914 35.289 62.0239 35.1689 62.4426C35.0483 62.8623 34.864 63.2395 34.6127 63.5795C34.3565 63.924 34.0222 64.2029 33.6373 64.3933C33.2368 64.5989 32.7411 64.7004 32.1498 64.7004C31.5288 64.7004 31.0162 64.5862 30.6092 64.3562C30.2055 64.1277 29.8772 63.8477 29.6264 63.5194V67.0639C29.6286 67.1078 29.6218 67.1517 29.6063 67.1928C29.5909 67.2339 29.5672 67.2714 29.5366 67.303C29.5046 67.3333 29.4668 67.3568 29.4254 67.372C29.384 67.3873 29.34 67.394 29.296 67.3917H29.041ZM32.0601 63.8329C32.6497 63.8329 33.1167 63.7043 33.4572 63.4451C33.7972 63.1858 34.0533 62.8321 34.1936 62.4282C34.3428 62.0086 34.4278 61.5607 34.4486 61.0815C34.4569 60.8027 34.4569 60.5237 34.4486 60.2448C34.4317 59.7856 34.3457 59.3316 34.1936 58.8981C34.0526 58.4944 33.7964 58.1409 33.4567 57.8813C33.1167 57.622 32.6492 57.4935 32.0601 57.4935C31.4895 57.4935 31.0289 57.6284 30.6783 57.8956C30.3341 58.157 30.0668 58.5062 29.9042 58.9066C29.7424 59.2937 29.6483 59.7058 29.6259 60.1247C29.6152 60.274 29.6115 60.469 29.6115 60.7075C29.6115 60.9466 29.6158 61.1416 29.6259 61.2908C29.6365 61.6893 29.7279 62.0835 29.9042 62.4718C30.0784 62.8614 30.3535 63.1974 30.7011 63.4451C31.056 63.7043 31.5086 63.8329 32.0601 63.8329V63.8329ZM22.7467 64.7009C22.2861 64.7057 21.8307 64.6033 21.4165 64.4018C21.0297 64.2167 20.6926 63.9421 20.4331 63.6007C20.1854 63.2769 20.0531 62.8795 20.0575 62.4718C20.0575 61.795 20.3338 61.2515 20.8831 60.8425C21.4329 60.4334 22.1491 60.1704 23.0309 60.0498L25.4051 59.7221V59.1972C25.4051 58.6697 25.2409 58.2526 24.9174 57.9498C24.5917 57.6449 24.0727 57.4929 23.3608 57.4929C22.8402 57.4929 22.4205 57.5949 22.0991 57.8005C21.7798 58.004 21.5599 58.2712 21.4393 58.5995C21.3894 58.7483 21.2943 58.8237 21.153 58.8237H20.9139C20.7938 58.8237 20.7088 58.7924 20.6568 58.726C20.6065 58.6598 20.5802 58.5785 20.5824 58.4954C20.5824 58.3546 20.6361 58.1804 20.7402 57.9726C20.8459 57.7628 21.0079 57.5556 21.23 57.35C21.4499 57.1466 21.7342 56.9744 22.0848 56.8352C22.4354 56.6966 22.8604 56.6259 23.3608 56.6259C23.9527 56.6259 24.4403 56.7046 24.826 56.865C25.2122 57.0244 25.5129 57.2316 25.7292 57.485C25.9427 57.74 26.0957 58.0226 26.1855 58.3296C26.2769 58.6388 26.3204 58.9438 26.3204 59.2429V64.2233C26.3226 64.2671 26.3158 64.3108 26.3005 64.3518C26.2851 64.3929 26.2616 64.4303 26.2312 64.4619C26.1992 64.4923 26.1614 64.5159 26.12 64.5312C26.0787 64.5465 26.0346 64.5533 25.9905 64.5511H25.735C25.6909 64.5533 25.6469 64.5465 25.6055 64.5312C25.5641 64.5159 25.5263 64.4923 25.4943 64.4619C25.4639 64.4302 25.4403 64.3927 25.4249 64.3516C25.4096 64.3105 25.4028 64.2666 25.4051 64.2228V63.5194C25.2622 63.7227 25.0901 63.9038 24.8946 64.0571C24.6746 64.2377 24.3899 64.3891 24.0456 64.5139C23.6992 64.6382 23.2673 64.7004 22.7467 64.7004V64.7009ZM22.896 63.8329C23.3566 63.8329 23.7779 63.7335 24.1577 63.5343C24.5376 63.3351 24.8404 63.028 25.0667 62.6152C25.293 62.2019 25.4051 61.6808 25.4051 61.0523V60.5439L23.4671 60.8138C22.6452 60.9216 22.0247 61.1123 21.6035 61.3801C21.1838 61.65 20.9723 61.9884 20.9723 62.3969C20.9723 62.7268 21.068 62.9967 21.2592 63.2065C21.4499 63.4137 21.6927 63.5715 21.987 63.6751C22.2819 63.7813 22.5847 63.8329 22.896 63.8329V63.8329ZM15.8654 64.5511C15.8214 64.5533 15.7773 64.5465 15.7359 64.5312C15.6946 64.5159 15.6568 64.4923 15.6248 64.4619C15.5947 64.43 15.5714 64.3924 15.5561 64.3513C15.5407 64.3103 15.5338 64.2666 15.5355 64.2228V57.12C15.5355 57.0201 15.5663 56.9372 15.6248 56.873C15.6557 56.8405 15.6931 56.815 15.7346 56.7982C15.7761 56.7813 15.8207 56.7735 15.8654 56.7752H16.1061C16.206 56.7752 16.2888 56.8087 16.3552 56.873C16.3874 56.9054 16.4126 56.944 16.4293 56.9865C16.446 57.0289 16.4539 57.0744 16.4525 57.12V57.8069C16.6203 57.4693 16.8948 57.1965 17.2334 57.0307C17.5734 56.8607 17.9947 56.7757 18.4946 56.7757H19.0508C19.1507 56.7757 19.2314 56.8044 19.2915 56.8645C19.3219 56.8964 19.3455 56.9343 19.3608 56.9756C19.3761 57.017 19.3829 57.0611 19.3807 57.1051V57.3123C19.3807 57.4143 19.3515 57.4929 19.2915 57.5535C19.2595 57.5839 19.2217 57.6075 19.1803 57.6228C19.1389 57.6382 19.0949 57.6449 19.0508 57.6427H18.4053C17.8034 57.6427 17.3285 57.817 16.9779 58.1655C16.6272 58.5145 16.4525 58.9895 16.4525 59.5871V64.2233C16.4542 64.2677 16.4465 64.312 16.4297 64.3531C16.4129 64.3943 16.3875 64.4313 16.3552 64.4619C16.2868 64.5225 16.1975 64.5545 16.1061 64.5511H15.8654ZM9.36187 64.7009C8.50072 64.7009 7.77609 64.5347 7.19118 64.2005C6.61647 63.8775 6.1511 63.3905 5.85456 62.8017C5.5475 62.2041 5.38175 61.515 5.34987 60.7389C5.33978 60.2884 5.33606 59.8156 5.33606 59.3172C5.33606 58.8195 5.33978 58.3461 5.3504 57.8956C5.38175 57.1094 5.5475 56.4187 5.85509 55.8248C6.15491 55.238 6.62286 54.754 7.19915 54.4345C7.78884 54.0998 8.51134 53.9341 9.36134 53.9341C10.053 53.9341 10.6443 54.0361 11.1341 54.2417C11.6255 54.4446 12.0266 54.7002 12.3353 55.003C12.6466 55.3079 12.8772 55.6134 13.0264 55.922C13.1778 56.2317 13.257 56.4905 13.2671 56.7003C13.2739 56.7397 13.2707 56.7802 13.2577 56.818C13.2447 56.8558 13.2223 56.8897 13.1927 56.9165C13.1263 56.9743 13.04 57.004 12.9521 56.9994H12.6216C12.5308 56.9994 12.466 56.9766 12.4267 56.933C12.3852 56.8873 12.3459 56.8108 12.3066 56.7003C12.1963 56.3744 12.025 56.0724 11.8019 55.8105C11.5682 55.5262 11.2521 55.2914 10.8563 55.1092C10.4616 54.9243 9.96165 54.8308 9.36187 54.8308C8.46937 54.8308 7.74687 55.0736 7.19118 55.5571C6.63497 56.0405 6.338 56.8459 6.29656 57.9726C6.26751 58.8695 6.26751 59.7671 6.29656 60.664C6.338 61.7807 6.63497 62.5818 7.19118 63.0716C7.7474 63.5593 8.46937 63.8042 9.36187 63.8042C9.95315 63.8042 10.4828 63.6921 10.9535 63.4679C11.4221 63.2464 11.8107 62.8853 12.0659 62.4341C12.3353 61.9719 12.4702 61.3801 12.4702 60.664V59.9006H9.85753C9.81278 59.9023 9.76817 59.8944 9.72668 59.8776C9.68518 59.8607 9.64775 59.8352 9.61687 59.8028C9.55594 59.7353 9.5239 59.6466 9.52762 59.5558V59.3465C9.52762 59.2386 9.55684 59.1536 9.61687 59.0931C9.64885 59.0627 9.68667 59.0391 9.72804 59.0237C9.76941 59.0084 9.81346 59.0016 9.85753 59.0038H13.0721C13.1821 59.0038 13.2671 59.033 13.3271 59.0931C13.3877 59.1536 13.4169 59.2386 13.4169 59.3465V60.664C13.4169 61.4608 13.2591 62.1647 12.9436 62.773C12.6351 63.3736 12.1536 63.8679 11.5612 64.192C10.9556 64.5304 10.2225 64.7004 9.36187 64.7004V64.7009Z" fill="#E434AA"/>
</svg>
