<svg width="59" height="58" viewBox="0 0 59 58" fill="none" xmlns="http://www.w3.org/2000/svg">
<path d="M1.03125 0.453125V57.0938H57.6719V0.453125H1.03125ZM30.9914 48.7168C30.1554 50.4156 28.5595 51.5316 26.7103 52.0704C23.8688 52.7229 21.1509 52.3509 19.1291 51.1374C17.776 50.3073 16.7193 49.0295 16.002 47.5573L20.3158 44.9156C20.3534 44.9314 20.4667 45.1362 20.618 45.4009C21.1681 46.3225 21.6425 46.975 22.5751 47.4331C23.4913 47.7458 25.5027 47.9456 26.2794 46.3334C26.7538 45.5132 26.6029 42.877 26.6029 39.9602C26.6025 35.3768 26.6237 30.8125 26.6237 26.2812H31.9294C31.9294 31.2656 31.9566 35.9863 31.9294 40.8501C31.9407 43.8317 32.1995 46.4897 30.9914 48.7168ZM53.0015 47.2179C51.1573 53.5263 40.875 53.7311 36.766 49.5633C35.8979 48.5822 35.3537 48.0698 34.8357 46.9374C37.0193 45.6813 37.0193 45.6813 39.144 44.452C40.2982 46.226 41.3653 47.2016 43.2852 47.6008C45.8897 47.9189 48.5101 47.024 47.9224 44.2576C47.3184 41.9983 42.5892 41.4487 39.3706 39.0326C36.1031 36.8382 35.3373 31.5058 38.0226 28.459C38.9175 27.332 40.4436 26.491 42.045 26.0869L43.7161 25.8707C46.9247 25.8059 48.9302 26.6533 50.4024 28.2972C50.812 28.7123 51.1464 29.16 51.7717 30.1301C50.0625 31.2194 50.068 31.209 47.6198 32.794C47.0968 31.6675 46.2291 30.9607 45.312 30.6535C43.8883 30.2221 42.093 30.6911 41.7205 32.1954C41.5914 32.659 41.6181 33.0904 41.8234 33.8561C42.4002 35.1716 44.336 35.7434 46.0723 36.5414C51.0708 38.5686 52.7586 40.7423 53.1737 43.3296C53.5734 45.5572 53.0772 47.0022 53.0015 47.2179V47.2179Z" fill="#F0DB4F"/>
</svg>
