<svg width="73" height="36" viewBox="0 0 73 36" fill="none" xmlns="http://www.w3.org/2000/svg">
<path d="M17.4875 9.375H31.0437V10.2656H18.725V17.0156H30.3125V17.9062H18.725V25.3125H31.2125V26.2031H17.4875V9.375ZM32.2812 9.375H33.7437L40.1562 16.7813L46.625 9.375L55.5125 0L40.8875 17.5781L48.425 26.2031H46.9062L40.1 18.3281L33.2375 26.2031H31.775L39.3687 17.5781L32.2812 9.375V9.375ZM48.9875 10.2656V9.375H64.4562V10.2656H57.3125V26.2031H56.075V10.2656H48.9875ZM0.5 9.375H2.01875L23.5063 36L14.6188 26.2031L1.79375 10.6406L1.7375 26.2031H0.5V9.375ZM64.3438 25.0312C64.625 25.0312 64.7938 24.8906 64.7938 24.6562C64.7938 24.4219 64.625 24.2812 64.3438 24.2812C64.0625 24.2812 63.8937 24.4219 63.8937 24.6562C63.8937 24.8906 64.1187 25.0312 64.3438 25.0312ZM65.5812 24.0469C65.5812 24.6562 66.1437 25.0781 66.9312 25.0781C67.775 25.0781 68.2812 24.6562 68.2812 23.9062V21.3281H67.6063V23.9062C67.6063 24.3281 67.3812 24.5156 66.9312 24.5156C66.5375 24.5156 66.2563 24.3281 66.2563 24H65.5812V24.0469ZM69.125 24C69.1813 24.6562 69.8 25.0781 70.8125 25.0781C71.825 25.0781 72.5 24.6562 72.5 23.9531C72.5 23.3906 72.1063 23.1094 71.2625 22.9219L70.7563 22.8281C70.1938 22.7344 69.9688 22.5469 69.9688 22.3125C69.9688 21.9844 70.3062 21.75 70.8687 21.75C71.375 21.75 71.7125 21.9375 71.7687 22.3125H72.4438C72.3875 21.7031 71.7687 21.2812 70.8687 21.2812C69.9125 21.2812 69.2938 21.7031 69.2938 22.3594C69.2938 22.875 69.6313 23.2031 70.4188 23.3437L70.9813 23.4375C71.5438 23.5312 71.825 23.7187 71.825 24C71.825 24.3281 71.4312 24.5625 70.8687 24.5625C70.3062 24.5625 69.8562 24.3281 69.8 24H69.125V24Z" fill="black"/>
</svg>
