<svg width="47" height="46" viewBox="0 0 47 46" fill="none" xmlns="http://www.w3.org/2000/svg">
<path d="M41.9918 29.0192C41.8875 29.0192 41.784 28.9919 41.6928 28.9387L40.7404 28.3752C40.5981 28.2957 40.6675 28.2674 40.7145 28.2512C40.9043 28.1851 40.9428 28.1696 41.1451 28.0553C41.1663 28.0435 41.194 28.0478 41.2159 28.0607L41.9472 28.4952C41.9608 28.5025 41.976 28.5063 41.9914 28.5063C42.0068 28.5063 42.022 28.5025 42.0356 28.4952L44.888 26.8489C44.9014 26.841 44.9125 26.8297 44.9202 26.8161C44.9279 26.8026 44.9319 26.7872 44.9318 26.7716V23.4798C44.9318 23.4639 44.9278 23.4484 44.92 23.4346C44.9123 23.4208 44.9011 23.4093 44.8876 23.4011L42.0363 21.7562C42.0228 21.7488 42.0077 21.7449 41.9923 21.7449C41.9769 21.7449 41.9618 21.7488 41.9483 21.7562L39.0974 23.4014C39.0838 23.4096 39.0726 23.4211 39.0648 23.4348C39.0569 23.4485 39.0527 23.464 39.0524 23.4798V26.7716C39.0524 26.8033 39.07 26.8331 39.0974 26.8478L39.8786 27.2996C40.3027 27.5112 40.5625 27.2618 40.5625 27.011V23.7604C40.5625 23.7148 40.5995 23.6785 40.6452 23.6785H41.0071C41.052 23.6785 41.0894 23.7148 41.0894 23.7604V27.011C41.0894 27.5766 40.7814 27.9011 40.2448 27.9011C40.0799 27.9011 39.9502 27.9011 39.5879 27.7229L38.84 27.2924C38.7491 27.2393 38.6736 27.1634 38.6211 27.0721C38.5687 26.9808 38.541 26.8773 38.541 26.772V23.4801C38.541 23.2663 38.655 23.0668 38.84 22.9605L41.6924 21.312C41.7843 21.262 41.8873 21.2357 41.9919 21.2357C42.0966 21.2357 42.1996 21.262 42.2915 21.312L45.1438 22.9605C45.3286 23.0672 45.4432 23.2666 45.4432 23.4801V26.772C45.443 26.8773 45.4153 26.9807 45.3628 27.072C45.3103 27.1633 45.2348 27.2393 45.1438 27.2924L42.2915 28.939C42.2005 28.9918 42.097 29.0195 41.9918 29.0192ZM42.8733 26.7512C41.6245 26.7512 41.3632 26.1779 41.3632 25.6975C41.3633 25.6756 41.3721 25.6547 41.3876 25.6392C41.403 25.6238 41.424 25.6152 41.4459 25.6152H41.8146C41.8343 25.6151 41.8534 25.6221 41.8685 25.6349C41.8835 25.6477 41.8934 25.6654 41.8965 25.6849C41.9519 26.0604 42.1183 26.2498 42.8733 26.2498C43.4738 26.2498 43.7297 26.114 43.7297 25.7949C43.7297 25.6109 43.6571 25.4746 42.7235 25.383C41.9429 25.3057 41.4603 25.1336 41.4603 24.5086C41.4603 23.9333 41.9454 23.5897 42.7583 23.5897C43.6722 23.5897 44.1243 23.9071 44.1814 24.5877C44.1823 24.5992 44.1809 24.6107 44.1772 24.6216C44.1735 24.6324 44.1676 24.6424 44.1599 24.651C44.1521 24.6591 44.1427 24.6657 44.1323 24.6702C44.122 24.6747 44.1108 24.6771 44.0995 24.6772H43.729C43.7103 24.6772 43.6922 24.6709 43.6776 24.6592C43.663 24.6475 43.6529 24.6311 43.6488 24.6129C43.5597 24.2176 43.3441 24.0914 42.758 24.0914C42.1021 24.0914 42.0259 24.3203 42.0259 24.491C42.0259 24.6984 42.1158 24.7588 43.0016 24.8759C43.8781 24.992 44.2946 25.1559 44.2946 25.7722C44.295 26.395 43.7768 26.7512 42.8733 26.7512M36.1185 24.592C36.231 24.5263 36.3003 24.4062 36.3003 24.2758V23.4298C36.3003 23.2997 36.2313 23.1797 36.1185 23.1139L33.1127 21.3688C33.0571 21.3365 32.994 21.3194 32.9297 21.3193C32.8654 21.3191 32.8022 21.336 32.7465 21.3681L29.722 23.1143C29.6665 23.1464 29.6205 23.1925 29.5884 23.248C29.5564 23.3035 29.5395 23.3664 29.5394 23.4305V26.9222C29.5394 27.0534 29.6099 27.1749 29.7241 27.2399L32.7296 28.9523C32.8403 29.0159 32.9761 29.0163 33.0879 28.9545L34.9056 27.9439C34.9339 27.9282 34.9575 27.9053 34.974 27.8774C34.9905 27.8496 34.9994 27.8179 34.9996 27.7855C34.9998 27.7532 34.9914 27.7213 34.9753 27.6933C34.9591 27.6652 34.9358 27.642 34.9078 27.6259L31.8646 25.8793C31.8367 25.8634 31.8135 25.8404 31.7973 25.8126C31.7811 25.7849 31.7726 25.7533 31.7726 25.7212V24.6265C31.7726 24.5611 31.8074 24.5011 31.8639 24.4688L32.8115 23.9225C32.8392 23.9064 32.8706 23.898 32.9026 23.898C32.9346 23.898 32.9661 23.9064 32.9937 23.9225L33.9414 24.4688C33.9692 24.4847 33.9923 24.5076 34.0084 24.5353C34.0245 24.563 34.033 24.5945 34.033 24.6265V25.4876C34.0329 25.5198 34.0412 25.5515 34.0572 25.5794C34.0733 25.6073 34.0964 25.6305 34.1243 25.6465C34.1522 25.6626 34.1839 25.671 34.2161 25.6709C34.2483 25.6707 34.2799 25.662 34.3076 25.6457L36.1185 24.592M32.8848 24.4281C32.8956 24.4222 32.9076 24.419 32.9199 24.419C32.9321 24.419 32.9442 24.4222 32.9549 24.4281L33.5353 24.7634C33.5569 24.776 33.5702 24.7994 33.5702 24.8242V25.4944C33.5702 25.5196 33.5569 25.5426 33.5353 25.5551L32.9549 25.8901C32.9443 25.8963 32.9322 25.8995 32.9199 25.8995C32.9076 25.8995 32.8955 25.8963 32.8848 25.8901L32.3048 25.5551C32.2941 25.549 32.2852 25.5402 32.279 25.5295C32.2728 25.5189 32.2696 25.5067 32.2696 25.4944V24.8242C32.2696 24.7994 32.2829 24.776 32.3048 24.7634L32.8848 24.4281ZM25.0142 25.8225C25.0142 25.8549 24.9969 25.8851 24.9685 25.9016L23.9299 26.5003C23.9161 26.5084 23.9003 26.5127 23.8843 26.5127C23.8683 26.5127 23.8525 26.5084 23.8387 26.5003L22.8001 25.9016C22.7862 25.8935 22.7747 25.882 22.7667 25.8681C22.7587 25.8543 22.7545 25.8385 22.7544 25.8225V24.6229C22.7544 24.5906 22.772 24.56 22.8001 24.5435L23.8387 23.9441C23.8525 23.9358 23.8683 23.9314 23.8845 23.9314C23.9006 23.9314 23.9165 23.9358 23.9303 23.9441L24.9693 24.5435C24.983 24.5517 24.9944 24.5633 25.0024 24.5773C25.0103 24.5912 25.0145 24.6069 25.0145 24.6229V25.8225H25.0142ZM25.2948 16.9402C25.267 16.925 25.2357 16.9173 25.2039 16.9177C25.1722 16.9182 25.1412 16.9269 25.1138 16.943C25.0864 16.9591 25.0637 16.982 25.0478 17.0094C25.0319 17.0369 25.0234 17.068 25.0232 17.0998V21.7411C25.0231 21.7635 25.0172 21.7855 25.006 21.8049C24.9948 21.8243 24.9788 21.8404 24.9595 21.8518C24.9401 21.8629 24.918 21.8688 24.8956 21.8688C24.8731 21.8688 24.8511 21.8629 24.8316 21.8518L24.074 21.4151C24.0186 21.3832 23.9557 21.3664 23.8917 21.3664C23.8276 21.3664 23.7648 21.3832 23.7093 21.4151L20.6841 23.161C20.6285 23.1931 20.5823 23.2392 20.5502 23.2948C20.5181 23.3504 20.5012 23.4134 20.5011 23.4776V26.9704C20.5011 27.1008 20.5709 27.2212 20.6837 27.287L23.7089 29.0339C23.8218 29.0993 23.9612 29.0993 24.0744 29.0339L27.1003 27.287C27.1558 27.2548 27.2019 27.2086 27.2339 27.153C27.2659 27.0975 27.2828 27.0345 27.2829 26.9704V18.2638C27.2829 18.1315 27.211 18.0094 27.0957 17.9447L25.2948 16.9402M14.648 21.3494C14.7035 21.3173 14.7665 21.3004 14.8306 21.3004C14.8947 21.3004 14.9576 21.3173 15.0131 21.3494L18.0383 23.0949C18.1512 23.1603 18.2209 23.281 18.2209 23.4115V26.9053C18.2209 27.0358 18.1512 27.1565 18.0383 27.2219L15.0135 28.9689C14.9579 29.0008 14.8949 29.0177 14.8307 29.0177C14.7666 29.0177 14.7036 29.0008 14.648 28.9689L11.6239 27.2219C11.5684 27.1897 11.5223 27.1436 11.4903 27.088C11.4583 27.0324 11.4414 26.9695 11.4413 26.9053V23.4111C11.4413 23.281 11.511 23.1603 11.6239 23.0949L14.648 21.3494M9.14669 23.3824C9.14669 23.2508 9.07769 23.1301 8.96413 23.065L5.93999 21.3246C5.8892 21.2951 5.83191 21.2787 5.77324 21.2768H5.74197C5.6833 21.2788 5.62603 21.2952 5.57522 21.3246L2.55072 23.065C2.49508 23.0972 2.44889 23.1435 2.41678 23.1992C2.38468 23.2549 2.36778 23.3181 2.3678 23.3824L2.37427 28.0686C2.37427 28.134 2.40841 28.1948 2.46555 28.2264C2.49291 28.243 2.52429 28.2517 2.55629 28.2517C2.58829 28.2517 2.61967 28.243 2.64703 28.2264L4.44391 27.1971C4.55747 27.1296 4.62683 27.0106 4.62683 26.8802V24.6909C4.62683 24.56 4.69583 24.4396 4.80903 24.3742L5.5745 23.9336C5.62983 23.9011 5.69289 23.8841 5.75706 23.8844C5.81959 23.8844 5.88356 23.9002 5.93927 23.9336L6.70402 24.3742C6.81722 24.4396 6.88694 24.56 6.88694 24.6909V26.8802C6.88694 27.0106 6.95702 27.1303 7.06986 27.1971L8.86674 28.2264C8.89444 28.2422 8.92582 28.2505 8.95773 28.2504C8.98965 28.2504 9.02098 28.2419 9.04861 28.226C9.07625 28.21 9.09921 28.1871 9.11523 28.1595C9.13124 28.1319 9.13973 28.1005 9.13986 28.0686L9.14669 23.3824" fill="#83CD29"/>
</svg>
