<svg width="77" height="76" viewBox="0 0 77 76" fill="none" xmlns="http://www.w3.org/2000/svg">
<path d="M38.9375 19.6169C18.9044 19.6169 2.66296 27.8475 2.66296 38C2.66296 48.1526 18.9044 56.3831 38.9375 56.3831C58.9707 56.3831 75.2121 48.1526 75.2121 38C75.2121 27.8475 58.9707 19.6169 38.9375 19.6169ZM29.4987 41.5815C28.633 42.3914 27.6717 42.7257 26.6131 43.0701C25.5544 43.415 24.2072 43.3438 22.569 43.3438H18.8563L17.8273 49.2813H13.4924L17.3607 29.0938H25.6969C28.2049 29.0938 30.0342 29.8152 31.1843 31.1315C32.3344 32.4479 32.68 34.3164 32.2216 36.6754C32.0322 37.6474 31.7134 38.551 31.2633 39.3562C30.7969 40.1869 30.2013 40.9381 29.4987 41.5815V41.5815ZM42.1521 43.3438L43.8627 34.7819C44.0574 33.7797 43.9862 33.0351 43.6483 32.6711C43.3099 32.3066 42.5903 32.0625 41.4901 32.0625H38.0522L35.837 43.3438H31.5358L35.4041 23.75H39.7052L38.6769 29.0938H42.5083C44.9196 29.0938 46.5821 29.5777 47.497 30.4184C48.412 31.2592 48.6863 32.4111 48.3206 34.2944L46.5209 43.3438H42.1521ZM66.0559 36.7068C65.8671 37.6788 65.5476 38.5671 65.0982 39.3716C64.6481 40.1773 64.0603 40.9142 63.3341 41.5815C62.4684 42.3914 61.5066 42.7257 60.4485 43.0701C59.3904 43.415 58.042 43.3438 56.4039 43.3438H52.6912L51.6628 49.2813H47.3278L51.1955 29.0938H59.5323C62.0403 29.0938 63.8697 29.8152 65.0192 31.1315C66.1681 32.4479 66.5142 34.3485 66.0559 36.7068V36.7068ZM57.8894 32.0625H54.9201L53.3009 40.375H55.9384C57.6852 40.375 58.9879 40.2028 59.8429 39.5438C60.6991 38.8859 61.2756 37.8647 61.5754 36.3251C61.8628 34.846 61.7322 33.6924 61.1836 33.0844C60.6343 32.4764 59.5365 32.0625 57.8894 32.0625V32.0625ZM24.0546 32.0625H21.0847L19.4655 40.375H22.1023C23.8497 40.375 25.1518 40.2028 26.0074 39.5438C26.863 38.8859 27.4402 37.8647 27.7394 36.3251C28.0268 34.846 27.8962 33.6924 27.3475 33.0844C26.7989 32.4764 25.7017 32.0625 24.0546 32.0625Z" fill="#6181B6"/>
</svg>
