<svg width="65" height="64" viewBox="0 0 65 64" fill="none" xmlns="http://www.w3.org/2000/svg">
<path d="M32.9376 28.4C35.5057 28.4 37.5876 26.3181 37.5876 23.75C37.5876 21.1819 35.5057 19.1 32.9376 19.1C30.3695 19.1 28.2876 21.1819 28.2876 23.75C28.2876 26.3181 30.3695 28.4 32.9376 28.4Z" fill="#61DAFB"/>
<path d="M32.9375 40.85C36.5875 44.4 40.1876 46.5 43.0876 46.5C44.0376 46.5 44.9375 46.3 45.6875 45.85C48.2875 44.35 49.2376 40.6 48.3376 35.25C48.1876 34.3 47.9875 33.35 47.7375 32.35C48.7375 32.05 49.6375 31.75 50.5375 31.45C55.5875 29.5 58.3876 26.8 58.3876 23.85C58.3876 20.85 55.5875 18.15 50.5375 16.25C49.6375 15.9 48.7375 15.6 47.7375 15.35C47.9875 14.35 48.1876 13.4 48.3376 12.45C49.1876 6.99999 48.2376 3.19999 45.6376 1.69999C44.8876 1.24999 43.9875 1.04999 43.0375 1.04999C40.1875 1.04999 36.5376 3.14999 32.8876 6.69999C29.2876 3.14999 25.6875 1.04999 22.7875 1.04999C21.8375 1.04999 20.9375 1.24999 20.1875 1.69999C17.5875 3.19999 16.6375 6.94999 17.5375 12.3C17.6875 13.25 17.8875 14.2 18.1375 15.2C17.1375 15.5 16.2375 15.8 15.3375 16.1C10.2875 18.05 7.48755 20.75 7.48755 23.7C7.48755 26.7 10.2875 29.4 15.3375 31.3C16.2375 31.65 17.1375 31.95 18.1375 32.2C17.8875 33.2 17.6875 34.15 17.5375 35.1C16.6875 40.45 17.6375 44.25 20.1875 45.7C20.9375 46.15 21.8375 46.35 22.7875 46.35C25.6875 46.45 29.2875 44.35 32.9375 40.85ZM30.1376 34.1C31.0376 34.15 31.9875 34.15 32.9375 34.15C33.8875 34.15 34.8375 34.15 35.7375 34.1C34.8375 35.3 33.8875 36.4 32.9375 37.45C31.9875 36.4 31.0376 35.3 30.1376 34.1V34.1ZM23.9375 28.95C24.4375 29.8 24.8875 30.6 25.4375 31.4C23.8875 31.2 22.4375 30.95 21.0375 30.65C21.4875 29.3 21.9875 27.9 22.5875 26.5C22.9875 27.3 23.4375 28.15 23.9375 28.95V28.95ZM21.0375 16.9C22.4375 16.6 23.8875 16.35 25.4375 16.15C24.9375 16.95 24.4375 17.75 23.9375 18.6C23.4375 19.45 22.9875 20.25 22.5875 21.1C21.9375 19.65 21.4375 18.25 21.0375 16.9V16.9ZM23.7875 23.75C24.4375 22.4 25.1375 21.05 25.9375 19.7C26.6875 18.4 27.5376 17.1 28.3876 15.8C29.8876 15.7 31.3875 15.65 32.9375 15.65C34.5375 15.65 36.0375 15.7 37.4875 15.8C38.3875 17.1 39.1875 18.4 39.9375 19.7C40.7375 21.05 41.4376 22.4 42.0876 23.75C41.4376 25.1 40.7375 26.45 39.9375 27.8C39.1875 29.1 38.3375 30.4 37.4875 31.7C35.9875 31.8 34.4875 31.85 32.9375 31.85C31.3375 31.85 29.8376 31.8 28.3876 31.7C27.4876 30.4 26.6875 29.1 25.9375 27.8C25.1375 26.45 24.4375 25.1 23.7875 23.75V23.75ZM43.3376 21.05L41.9875 18.55C41.4875 17.7 41.0375 16.9 40.4875 16.1C42.0375 16.3 43.4876 16.55 44.8876 16.85C44.4376 18.25 43.9376 19.65 43.3376 21.05ZM43.3376 26.45C43.9376 27.85 44.4376 29.25 44.8876 30.6C43.4876 30.9 42.0375 31.15 40.4875 31.35C40.9875 30.55 41.4875 29.75 41.9875 28.9C42.4375 28.15 42.8876 27.3 43.3376 26.45ZM44.4875 43.8C44.0875 44.05 43.5875 44.15 43.0375 44.15C40.5875 44.15 37.5375 42.15 34.5375 39.15C35.9875 37.6 37.3875 35.85 38.7875 33.9C41.1375 33.7 43.3875 33.35 45.4875 32.85C45.7375 33.75 45.8875 34.65 46.0375 35.55C46.7375 39.8 46.1875 42.85 44.4875 43.8V43.8ZM47.0876 17.45C52.6876 19.05 56.0375 21.5 56.0375 23.75C56.0375 25.7 53.7375 27.65 49.6875 29.2C48.8875 29.5 47.9876 29.8 47.0876 30.05C46.4376 28 45.6376 25.9 44.6376 23.75C45.6376 21.6 46.4876 19.5 47.0876 17.45ZM43.0876 3.34999C43.6376 3.34999 44.0875 3.44999 44.5375 3.69999C46.1875 4.64999 46.7876 7.64999 46.0876 11.95C45.9376 12.8 45.7375 13.7 45.5375 14.65C43.4375 14.2 41.1876 13.85 38.8376 13.6C37.4876 11.65 36.0376 9.89999 34.5876 8.34999C37.5876 5.39999 40.6376 3.34999 43.0876 3.34999V3.34999ZM35.7375 13.4C34.8375 13.35 33.8875 13.35 32.9375 13.35C31.9875 13.35 31.0376 13.35 30.1376 13.4C31.0376 12.2 31.9875 11.1 32.9375 10.05C33.8875 11.1 34.8375 12.25 35.7375 13.4ZM21.3875 3.69999C21.7875 3.44999 22.2875 3.34999 22.8375 3.34999C25.2875 3.34999 28.3375 5.34999 31.3375 8.34999C29.8875 9.89999 28.4875 11.65 27.0875 13.6C24.7375 13.8 22.4875 14.15 20.3875 14.65C20.1375 13.75 19.9875 12.85 19.8375 11.95C19.1375 7.69999 19.6875 4.69999 21.3875 3.69999V3.69999ZM18.7875 30.05C13.1875 28.45 9.83755 26 9.83755 23.75C9.83755 21.8 12.1375 19.85 16.1875 18.3C16.9875 18 17.8875 17.7 18.7875 17.45C19.4375 19.5 20.2375 21.6 21.2375 23.75C20.2375 25.9 19.3875 28.05 18.7875 30.05V30.05ZM19.8375 35.55C19.9875 34.7 20.1875 33.8 20.3875 32.85C22.4875 33.3 24.7375 33.65 27.0875 33.9C28.4375 35.85 29.8875 37.6 31.3375 39.15C28.3375 42.1 25.2875 44.15 22.8375 44.15C22.2875 44.15 21.8375 44.05 21.3875 43.8C19.6875 42.85 19.1375 39.8 19.8375 35.55V35.55ZM17.7375 56.15C18.8375 54.8 18.8875 53.3 18.2875 51.8C17.6875 50.3 16.4375 49.6 14.8875 49.55C13.0375 49.5 11.1375 49.55 9.28755 49.55H8.93755V62.5H10.4375V57.6H12.7875C13.0875 57.6 13.3375 57.7 13.4875 57.95L16.4875 62.6C16.5375 62.7 16.6875 62.85 16.7875 62.85H18.7375C17.5375 61 16.3875 59.25 15.1875 57.45C16.2375 57.3 17.1375 56.95 17.7375 56.15V56.15ZM10.4375 56.05V51.1H10.9875C12.1375 51.1 13.3375 51.05 14.4875 51.15C15.8375 51.2 16.7875 52.25 16.7875 53.6C16.7875 54.95 15.6875 56 14.3375 56.05C13.1375 56.1 11.9375 56.05 10.4375 56.05V56.05ZM29.7875 56.7C28.9875 53.2 25.7875 52.3 23.3375 53.4C21.4375 54.25 20.5875 55.9 20.5375 57.95C20.4875 59.5 20.9375 60.9 22.1375 61.95C23.4875 63.15 25.1375 63.3 26.8375 63C27.7875 62.8 28.6375 62.35 29.2875 61.65C29.0375 61.3 28.7875 60.95 28.5375 60.65C27.1375 61.85 25.5876 62.25 23.8876 61.45C22.7876 60.9 22.2375 59.55 22.1375 58.55H29.8876V57.9C29.9376 57.45 29.8875 57.05 29.7875 56.7V56.7ZM22.2375 57.5C22.0875 56 23.5875 54.4 25.2375 54.4C27.1375 54.35 28.3376 55.5 28.3876 57.5H22.2375ZM37.5876 53.15C36.8376 53 36.0375 52.95 35.2875 53C34.0875 53.1 33.0375 53.65 32.1875 54.55C32.4375 54.9 32.6375 55.25 32.9375 55.65C33.0375 55.55 33.1375 55.45 33.2375 55.4C34.0375 54.65 34.9876 54.25 36.1376 54.35C37.0376 54.4 37.8876 54.7 38.1376 55.6C38.3376 56.3 38.2876 57.05 38.3376 57.8C38.1876 57.8 38.1376 57.75 38.0876 57.7C36.8876 56.7 35.5376 56.5 34.0876 56.85C32.7376 57.2 31.8875 58.25 31.7875 59.6C31.6875 61.15 32.3875 62.3 33.7375 62.85C34.5875 63.2 35.5375 63.2 36.4375 63C37.1375 62.85 37.4375 62.45 38.4375 61.9V62.55H39.8376C39.8376 60.55 39.8876 58.1 39.8376 55.8C39.8376 54.35 38.9876 53.45 37.5876 53.15ZM38.2875 59.45C38.2375 59.6 38.2875 59.75 38.2875 59.9C38.2875 60.95 38.0375 61.3 37.0375 61.7C36.3375 61.95 35.5876 62.05 34.8376 61.8C33.9876 61.55 33.3876 60.8 33.3876 59.95C33.3376 59.1 33.8875 58.25 34.7375 58C35.8875 57.6 36.9376 57.85 37.8876 58.55C38.1876 58.8 38.3875 59.05 38.2875 59.45V59.45ZM46.0876 54.5C47.3876 54.1 48.5875 54.35 49.4875 55.45L49.6376 55.55C49.9876 55.25 50.2875 54.95 50.6875 54.6C50.5375 54.45 50.4876 54.35 50.3876 54.2C48.9376 52.65 46.0876 52.45 44.3376 53.7C41.8876 55.5 41.9376 59 43.1376 60.85C44.2876 62.6 45.9376 63.2 47.8876 62.95C49.0376 62.8 49.9875 62.25 50.7375 61.3C50.3875 61 50.0375 60.7 49.6875 60.35C49.5875 60.45 49.5375 60.5 49.4875 60.6C48.1375 62.1 45.8875 61.95 44.6875 60.35C43.9875 59.4 43.8375 58.3 44.0375 57.2C44.1375 55.95 44.7876 54.95 46.0876 54.5ZM56.4875 61.3C56.3875 61.35 56.3376 61.4 56.3376 61.4C55.9376 61.7 55.5376 61.75 55.0876 61.6C54.6376 61.4 54.5875 61 54.5375 60.6V54.9C54.5375 54.8 54.5376 55 54.5876 54.5H56.4875V53H54.4875V50.5H52.9875V53.2H51.6875C51.5875 53.2 51.4375 53.3 51.4375 53.4C51.3875 53.75 51.4375 54 51.4375 54.5H53.0375V60.9C53.0375 61.7 53.2375 62.4 53.9375 62.8C54.6875 63.25 56.1375 63.15 56.7875 62.6C56.8875 62.55 56.9375 62.35 56.9375 62.3C56.7875 62 56.6375 61.65 56.4875 61.3V61.3Z" fill="#61DAFB"/>
</svg>
