<svg width="85" height="84" viewBox="0 0 85 84" fill="none" xmlns="http://www.w3.org/2000/svg">
<path d="M8.77397 36.7986C6.45872 36.7986 5.01563 37.9654 4.44141 40.2774C5.31028 39.1138 6.32813 38.6853 7.47656 38.98C8.13281 39.144 8.60991 39.6211 9.13228 40.1619C9.98606 41.0307 10.9704 42.0335 13.1216 42.0335C15.4336 42.0335 16.8767 40.8667 17.4509 38.5547C16.582 39.7182 15.5642 40.1468 14.4158 39.8521C13.7595 39.6881 13.2857 39.211 12.76 38.6702C11.9063 37.8013 10.9219 36.7986 8.77397 36.7986V36.7986ZM4.42631 42C2.11106 42 0.667969 43.1636 0.09375 45.4781C0.962625 44.312 1.98047 43.8867 3.12891 44.1814C3.78516 44.3455 4.26225 44.8226 4.78463 45.3633C5.63841 46.2322 6.62278 47.2349 8.77397 47.2349C11.0859 47.2349 12.529 46.0681 13.1033 43.7561C12.2344 44.9197 11.2165 45.3482 10.0681 45.0503C9.41184 44.8862 8.93803 44.4124 8.41238 43.8716C7.57369 42.9995 6.58931 42 4.42631 42Z" fill="url(#paint0_linear_3_399)"/>
<path d="M26.1311 41.1797H24.6211V44.1177C24.6211 44.9045 25.1284 44.8862 26.1305 44.8376V46.0195C24.0961 46.2656 23.2935 45.7065 23.2935 44.1177V41.1797H22.1752V39.9157H23.2935V38.2751L24.606 37.8833V39.9157H26.1127V41.1797H26.1311ZM31.9061 39.9157H33.2186V46.0195H31.9061V45.1323C31.4448 45.7734 30.7249 46.1685 29.7733 46.1685C28.115 46.1685 26.7388 44.7556 26.7388 42.9509C26.7388 41.1311 28.115 39.7366 29.774 39.7366C30.7249 39.7366 31.4448 40.1284 31.9068 40.7695L31.9061 39.9157ZM29.9682 44.9196C31.0681 44.9196 31.9068 44.0993 31.9068 42.9693C31.9068 41.8359 31.0681 41.0156 29.9682 41.0156C28.8716 41.0156 28.0329 41.8359 28.0329 42.9693C28.0513 44.0993 28.8716 44.9196 29.9689 44.9196H29.9682ZM35.4157 38.9983C34.957 38.9983 34.5803 38.6032 34.5803 38.1596C34.5803 37.7009 34.957 37.3242 35.4157 37.3242C35.8751 37.3242 36.2544 37.7009 36.2544 38.1596C36.2695 38.6032 35.8745 38.9983 35.4157 38.9983ZM34.7595 46.0195V39.9164H36.072V46.0195H34.7595ZM37.5971 46.0195V37.1116H38.9096V46.0195H37.5971ZM47.4927 39.9164H48.8872L46.967 46.0195H45.6696L44.4057 41.9029L43.1267 46.0195H41.8325L39.9124 39.9164H41.3062L42.4875 44.1328L43.7672 39.9157H45.0311L46.2918 44.1328L47.4927 39.9164ZM50.5095 38.9976C50.0508 38.9976 49.6741 38.6039 49.6741 38.1596C49.6741 37.7009 50.0508 37.3242 50.5095 37.3242C50.9689 37.3242 51.3482 37.7009 51.3482 38.1596C51.3633 38.6032 50.9866 38.9983 50.5095 38.9983V38.9976ZM49.8532 46.0195V39.9164H51.1657V46.0195H49.8532ZM55.9085 39.7523C57.2695 39.7523 58.2539 40.6875 58.2539 42.2612V46.0195H56.9414V42.4101C56.9414 41.4743 56.4006 41.0005 55.5803 41.0005C54.7115 41.0005 54.0217 41.5078 54.0217 42.7534V46.0346H52.7092V39.9341H54.0217V40.7209C54.4319 40.0647 55.0881 39.7517 55.9085 39.7517V39.7523ZM64.5217 37.4732H65.8342V46.0195H64.5217V45.1323C64.0624 45.7734 63.3398 46.1685 62.3889 46.1685C60.7299 46.1685 59.3538 44.7556 59.3538 42.9509C59.3538 41.1311 60.7299 39.7366 62.3889 39.7366C63.3398 39.7366 64.0624 40.1284 64.5217 40.7695V37.4732ZM62.5858 44.9196C63.683 44.9196 64.5217 44.0993 64.5217 42.9693C64.5217 41.8359 63.683 41.0156 62.5858 41.0156C61.4866 41.0156 60.6479 41.8359 60.6479 42.9693C60.6479 44.0993 61.4866 44.9196 62.5864 44.9196H62.5858ZM70.2455 46.1836C68.4107 46.1836 67.0161 44.7739 67.0161 42.9693C67.0161 41.1462 68.3923 39.7517 70.2455 39.7517C71.4458 39.7517 72.4788 40.3751 72.971 41.3286L71.8376 41.9849C71.5764 41.4107 70.9687 41.0491 70.2305 41.0491C69.149 41.0491 68.3437 41.8694 68.3437 42.9693C68.3437 44.0659 69.164 44.8862 70.2305 44.8862C70.9687 44.8862 71.558 44.5095 71.856 43.9536L72.986 44.5915C72.4939 45.5608 71.4458 46.1836 70.2455 46.1836ZM75.1858 41.5898C75.1858 42.7054 78.467 42.0334 78.467 44.2969C78.467 45.5122 77.4006 46.1836 76.0881 46.1836C74.8728 46.1836 73.9881 45.6244 73.5937 44.7556L74.7271 44.0993C74.9213 44.6584 75.4135 44.9866 76.0881 44.9866C76.6775 44.9866 77.1211 44.789 77.1211 44.2969C77.1211 43.2154 73.8398 43.8198 73.8398 41.639C73.8398 40.4906 74.8242 39.77 76.0698 39.77C77.0725 39.77 77.9079 40.2288 78.3364 41.0307L77.2182 41.6568C77.0056 41.1797 76.5803 40.967 76.0698 40.967C75.596 40.9487 75.1858 41.1639 75.1858 41.5898ZM80.8125 41.5898C80.8125 42.7054 84.0937 42.0334 84.0937 44.2969C84.0937 45.5122 83.0273 46.1836 81.7148 46.1836C80.4995 46.1836 79.6148 45.6244 79.2211 44.7556L80.3538 44.0993C80.5506 44.6584 81.0428 44.9866 81.7148 44.9866C82.3041 44.9866 82.7478 44.789 82.7478 44.2969C82.7478 43.2154 79.4665 43.8198 79.4665 41.639C79.4665 40.4906 80.4509 39.77 81.6997 39.77C82.6992 39.77 83.5346 40.2288 83.9631 41.0307L82.8475 41.6568C82.6323 41.1797 82.207 40.967 81.6991 40.967C81.2226 40.9487 80.8125 41.1639 80.8125 41.5898Z" fill="#2D3748"/>
<defs>
<linearGradient id="paint0_linear_3_399" x1="-0.370663" y1="40.1071" x2="14.6262" y2="48.7539" gradientUnits="userSpaceOnUse">
<stop stop-color="#2298BD"/>
<stop offset="1" stop-color="#0ED7B5"/>
</linearGradient>
</defs>
</svg>
