<svg width="59" height="58" viewBox="0 0 59 58" fill="none" xmlns="http://www.w3.org/2000/svg">
<path d="M11.1786 21.2969H56.3416V54.6786H11.1786V21.2969Z" fill="white"/>
<path d="M1.58594 28.9592V57.2795H58.2266V0.638916H1.58594V28.9592ZM47.2292 26.6936C48.5858 27.0084 49.8188 27.7179 50.7727 28.7327C51.2978 29.2793 51.7543 29.888 52.132 30.5452C52.132 30.6177 49.6852 32.2716 48.1944 33.1959C48.14 33.2322 47.9225 32.9966 47.6823 32.6386C47.4102 32.169 47.0235 31.776 46.5584 31.4963C46.0933 31.2166 45.5649 31.0593 45.0225 31.0391C43.3052 30.9213 42.1995 31.823 42.2086 33.3047C42.1944 33.6736 42.2789 34.0396 42.4533 34.365C42.8294 35.1489 43.5317 35.6156 45.7339 36.5672C49.7894 38.3117 51.5248 39.4627 52.6033 41.0984C53.8086 42.9109 54.0759 45.8381 53.2603 48.0041C52.3541 50.3603 50.1337 51.9599 46.9936 52.49C45.5594 52.6543 44.1103 52.6391 42.6798 52.4447C40.4875 52.0833 38.468 51.0307 36.9161 49.4405C36.395 48.865 35.38 47.3652 35.4434 47.2564C35.6089 47.1336 35.783 47.0231 35.9645 46.9256L38.0625 45.7656L39.6892 44.8231L40.0291 45.3261C40.6026 46.1465 41.3325 46.8456 42.1769 47.3833C43.9894 48.3349 46.4634 48.2034 47.6869 47.1024C48.0976 46.6989 48.3539 46.1641 48.411 45.5912C48.4682 45.0182 48.3225 44.4434 47.9995 43.9667C47.5464 43.3369 46.6402 42.8067 44.1072 41.7011C41.1845 40.4414 39.9248 39.662 38.7739 38.4205C38.0554 37.6012 37.5249 36.6346 37.2197 35.5884C36.992 34.3933 36.9584 33.1693 37.12 31.9634C37.7227 29.1405 39.8387 27.1694 42.9291 26.5849C44.3602 26.4078 45.8099 26.4475 47.2292 26.7027V26.6936ZM33.9345 29.068V31.388H26.5803V52.3359H21.3648V31.3834H13.9925V29.1178C13.9695 28.3365 13.9877 27.5546 14.0469 26.7752C14.0831 26.7344 18.5781 26.7344 24.0156 26.7344H33.9073L33.9345 29.068Z" fill="#007ACC"/>
</svg>
